<?xml version="1.0" encoding="UTF-8" standalone="no"?><!-- Generator: Gravit.io --><svg xmlns="http://www.w3.org/2000/svg" xmlns:xlink="http://www.w3.org/1999/xlink" style="isolation:isolate" viewBox="1195.698 972.657 1500 915" width="1500pt" height="915pt"><defs><clipPath id="_clipPath_jNnOyewjV0pi2y8z2e1BRH9YmO00ko4l"><rect x="1195.698" y="972.657" width="1500" height="915"/></clipPath></defs><g clip-path="url(#_clipPath_jNnOyewjV0pi2y8z2e1BRH9YmO00ko4l)"><text transform="matrix(2.561,0,0,2.561,1806.53,1048.492)" style="font-family:'Lato';font-weight:700;font-size:30px;font-style:normal;fill:#44addc;stroke:none;">Upss...</text><g><path d=" M 1413.74 1249.255 C 1413.74 1228.572 1430.486 1211.819 1451.161 1211.819 L 1713.109 1211.819 C 1733.784 1211.819 1750.53 1228.572 1750.53 1249.255 L 1750.53 1511.309 C 1750.53 1531.992 1733.784 1548.745 1713.109 1548.745 L 1451.161 1548.745 C 1430.486 1548.745 1413.74 1531.992 1413.74 1511.309 L 1413.74 1249.255 Z " fill="rgb(136,84,248)"/><path d=" M 1619.444 1396.623 L 1638.154 1396.623 L 1638.154 1423.39 L 1619.444 1423.39 L 1619.444 1455.154 L 1584.006 1455.154 L 1584.006 1423.38 L 1528.099 1423.38 L 1526.003 1402.182 L 1584.006 1305.7 L 1584.006 1305.409 L 1596.295 1305.409 L 1619.444 1305.409 L 1619.444 1396.623 Z  M 1556.483 1396.623 L 1583.997 1396.623 L 1583.997 1350.557 L 1581.807 1354.067 L 1556.483 1396.623 Z " fill="rgb(255,255,255)" vector-effect="non-scaling-stroke" stroke-width="1" stroke="rgb(68,173,220)" stroke-linejoin="miter" stroke-linecap="butt" stroke-miterlimit="4"/></g><g><g><path d=" M 1746.935 1249.255 C 1746.935 1228.572 1763.681 1211.819 1784.356 1211.819 L 2046.304 1211.819 C 2066.979 1211.819 2083.725 1228.572 2083.725 1249.255 L 2083.725 1511.309 C 2083.725 1531.992 2066.979 1548.745 2046.304 1548.745 L 1784.356 1548.745 C 1763.681 1548.745 1746.935 1531.992 1746.935 1511.309 L 1746.935 1249.255 Z " fill="rgb(136,84,248)"/><path d=" M 1965.317 1393.59 C 1965.317 1413.291 1960.954 1428.462 1952.247 1439.141 C 1943.55 1449.82 1931.317 1455.154 1915.484 1455.154 C 1899.543 1455.154 1887.183 1449.782 1878.449 1439.029 C 1869.715 1428.294 1865.343 1413.151 1865.343 1393.59 L 1865.343 1366.973 C 1865.343 1347.272 1869.678 1332.101 1878.412 1321.423 C 1887.11 1310.753 1899.389 1305.409 1915.293 1305.409 C 1931.162 1305.409 1943.486 1310.782 1952.22 1321.535 C 1960.945 1332.279 1965.317 1347.46 1965.317 1367.086 L 1965.317 1393.59 Z  M 1932.125 1362.659 C 1932.125 1352.177 1930.771 1344.343 1928.072 1339.186 C 1925.409 1334.001 1921.119 1331.437 1915.293 1331.437 C 1909.577 1331.437 1905.423 1333.814 1902.833 1338.643 C 1900.243 1343.463 1898.825 1350.707 1898.652 1360.469 L 1898.652 1397.68 C 1898.652 1408.574 1899.998 1416.548 1902.651 1421.593 C 1905.351 1426.6 1909.613 1429.127 1915.466 1429.127 C 1921.119 1429.127 1925.309 1426.675 1927.972 1421.78 C 1930.671 1416.876 1932.053 1409.201 1932.125 1398.71 L 1932.125 1362.659 Z " fill="rgb(255,255,255)" vector-effect="non-scaling-stroke" stroke-width="1" stroke="rgb(68,173,220)" stroke-linejoin="miter" stroke-linecap="butt" stroke-miterlimit="4"/></g></g><g><path d=" M 2080.671 1249.255 C 2080.671 1228.572 2097.417 1211.819 2118.093 1211.819 L 2380.041 1211.819 C 2400.716 1211.819 2417.462 1228.572 2417.462 1249.255 L 2417.462 1511.309 C 2417.462 1531.992 2400.716 1548.745 2380.041 1548.745 L 2118.093 1548.745 C 2097.417 1548.745 2080.671 1531.992 2080.671 1511.309 L 2080.671 1249.255 Z " fill="rgb(136,84,248)"/><path d=" M 2286.376 1396.623 L 2305.086 1396.623 L 2305.086 1423.39 L 2286.376 1423.39 L 2286.376 1455.154 L 2250.938 1455.154 L 2250.938 1423.38 L 2195.03 1423.38 L 2192.935 1402.182 L 2250.938 1305.7 L 2250.938 1305.409 L 2273.878 1305.409 L 2286.376 1305.409 L 2286.376 1396.623 Z  M 2223.414 1396.623 L 2250.928 1396.623 L 2250.928 1350.557 L 2248.739 1354.067 L 2223.414 1396.623 Z " fill="rgb(255,255,255)" vector-effect="non-scaling-stroke" stroke-width="1" stroke="rgb(68,173,220)" stroke-linejoin="miter" stroke-linecap="butt" stroke-miterlimit="4"/></g><text transform="matrix(2.561,0,0,2.561,1513.279,1157.155)" style="font-family:'Lato';font-weight:700;font-size:25px;font-style:normal;fill:#44addc;stroke:none;">Se pare ca pagina nu exista :(</text><g><path d=" M 1560.375 1691.17 L 1558.455 1691.089 C 1525.694 1690.452 1499.517 1663.611 1499.688 1630.831 C 1499.628 1606.165 1514.644 1583.968 1537.556 1574.856 L 1541.245 1573.378 L 1540.642 1569.445 C 1540.165 1566.465 1539.916 1563.453 1539.898 1560.435 C 1539.898 1527.158 1566.949 1500.096 1600.213 1500.096 C 1605.41 1500.096 1610.718 1500.82 1616.006 1502.258 L 1621.072 1503.635 L 1622.218 1498.517 C 1629.847 1464.072 1660.446 1439.607 1695.712 1439.756 C 1722.833 1439.756 1747.985 1454.479 1761.354 1478.172 L 1763.023 1481.119 L 1766.381 1480.686 C 1769.577 1480.264 1772.814 1479.982 1776.132 1479.982 C 1814.261 1479.994 1846.375 1508.494 1850.932 1546.366 L 1851.224 1548.89 L 1853.435 1550.147 C 1877.057 1563.545 1891.678 1588.591 1891.735 1615.756 C 1891.735 1657.35 1857.919 1691.18 1816.342 1691.18 L 1560.375 1691.18 L 1560.375 1691.17 Z " fill="rgb(22,232,202)"/><path d=" M 1695.712 1444.785 C 1721.099 1444.832 1744.501 1458.529 1756.982 1480.646 L 1760.309 1486.539 L 1767.024 1485.674 C 1770.532 1485.222 1773.417 1485.011 1776.132 1485.011 C 1811.715 1485.02 1841.684 1511.617 1845.936 1546.959 L 1846.539 1552.007 L 1850.962 1554.511 C 1873.01 1567.015 1886.657 1590.392 1886.709 1615.746 C 1886.709 1654.564 1855.144 1686.141 1816.342 1686.141 L 1561.782 1686.141 L 1558.576 1686.061 C 1528.55 1685.473 1504.56 1660.874 1504.714 1630.831 C 1504.659 1608.221 1518.424 1587.875 1539.426 1579.522 L 1546.804 1576.555 L 1545.628 1568.691 C 1545.182 1565.961 1544.946 1563.201 1544.924 1560.435 C 1544.924 1529.933 1569.724 1505.124 1600.213 1505.124 C 1604.948 1505.124 1609.823 1505.798 1614.699 1507.115 L 1624.822 1509.86 L 1627.134 1499.623 C 1634.241 1467.474 1662.799 1444.637 1695.712 1444.785 M 1695.712 1434.728 C 1657.412 1434.728 1625.425 1461.539 1617.322 1497.41 C 1611.748 1495.875 1605.995 1495.088 1600.213 1495.067 C 1564.126 1495.067 1534.872 1524.333 1534.872 1560.435 C 1534.872 1563.763 1535.204 1567.002 1535.676 1570.19 C 1510.91 1580.129 1494.673 1604.135 1494.662 1630.831 C 1494.673 1666.264 1522.917 1695.228 1558.324 1696.118 L 1558.324 1696.198 L 1816.342 1696.198 C 1860.756 1696.198 1896.762 1660.178 1896.762 1615.746 C 1896.762 1586.756 1881.154 1560.012 1855.918 1545.762 C 1851.143 1505.888 1817.276 1474.954 1776.132 1474.954 C 1772.603 1474.954 1769.145 1475.256 1765.737 1475.698 C 1751.504 1450.392 1724.737 1434.731 1695.712 1434.728 Z " fill="rgb(153,63,255)" fill-opacity="0.5"/></g><g><path d=" M 2020.888 1691.17 L 2018.968 1691.089 C 1986.207 1690.452 1960.03 1663.611 1960.202 1630.831 C 1960.141 1606.165 1975.158 1583.968 1998.069 1574.856 L 2001.759 1573.378 L 2001.155 1569.445 C 2000.678 1566.465 2000.43 1563.453 2000.412 1560.435 C 2000.412 1527.158 2027.463 1500.096 2060.726 1500.096 C 2065.924 1500.096 2071.231 1500.82 2076.519 1502.258 L 2081.585 1503.635 L 2082.731 1498.517 C 2090.36 1464.072 2120.96 1439.607 2156.225 1439.756 C 2183.347 1439.756 2208.498 1454.479 2221.868 1478.172 L 2223.537 1481.119 L 2226.894 1480.686 C 2230.091 1480.264 2233.328 1479.982 2236.645 1479.982 C 2274.775 1479.994 2306.889 1508.494 2311.446 1546.366 L 2311.737 1548.89 L 2313.949 1550.147 C 2337.57 1563.545 2352.191 1588.591 2352.249 1615.756 C 2352.249 1657.35 2318.432 1691.18 2276.855 1691.18 L 2020.888 1691.18 L 2020.888 1691.17 Z " fill="rgb(22,232,202)"/><path d=" M 2156.225 1444.785 C 2181.613 1444.832 2205.015 1458.529 2217.495 1480.646 L 2220.822 1486.539 L 2227.538 1485.674 C 2231.046 1485.222 2233.931 1485.011 2236.645 1485.011 C 2272.228 1485.02 2302.198 1511.617 2306.45 1546.959 L 2307.053 1552.007 L 2311.476 1554.511 C 2333.524 1567.015 2347.17 1590.392 2347.222 1615.746 C 2347.222 1654.564 2315.658 1686.141 2276.855 1686.141 L 2022.296 1686.141 L 2019.089 1686.061 C 1989.063 1685.473 1965.074 1660.874 1965.228 1630.831 C 1965.173 1608.221 1978.937 1587.875 1999.939 1579.522 L 2007.318 1576.555 L 2006.141 1568.691 C 2005.695 1565.961 2005.46 1563.201 2005.438 1560.435 C 2005.438 1529.933 2030.237 1505.124 2060.726 1505.124 C 2065.461 1505.124 2070.337 1505.798 2075.212 1507.115 L 2085.335 1509.86 L 2087.647 1499.623 C 2094.755 1467.474 2123.313 1444.637 2156.225 1444.785 M 2156.225 1434.728 C 2117.925 1434.728 2085.938 1461.539 2077.836 1497.41 C 2072.261 1495.875 2066.508 1495.088 2060.726 1495.067 C 2024.64 1495.067 1995.385 1524.333 1995.385 1560.435 C 1995.385 1563.763 1995.717 1567.002 1996.189 1570.19 C 1971.423 1580.129 1955.186 1604.135 1955.175 1630.831 C 1955.186 1666.264 1983.43 1695.228 2018.838 1696.118 L 2018.838 1696.198 L 2276.855 1696.198 C 2321.27 1696.198 2357.275 1660.178 2357.275 1615.746 C 2357.275 1586.756 2341.668 1560.012 2316.432 1545.762 C 2311.657 1505.888 2277.79 1474.954 2236.645 1474.954 C 2233.117 1474.954 2229.659 1475.256 2226.251 1475.698 C 2212.018 1450.392 2185.25 1434.731 2156.225 1434.728 Z " fill="rgb(153,63,255)" fill-opacity="0.5"/></g><g><path d=" M 1280.053 1832.809 L 1277.588 1832.705 C 1235.532 1831.887 1201.93 1797.432 1202.15 1755.352 C 1202.072 1723.689 1221.348 1695.196 1250.76 1683.498 L 1255.496 1681.601 L 1254.722 1676.553 C 1254.109 1672.727 1253.79 1668.861 1253.767 1664.986 C 1253.767 1622.269 1288.492 1587.53 1331.192 1587.53 C 1337.863 1587.53 1344.677 1588.459 1351.464 1590.305 L 1357.968 1592.074 L 1359.439 1585.503 C 1369.232 1541.287 1408.512 1509.882 1453.782 1510.073 C 1488.598 1510.073 1520.884 1528.973 1538.047 1559.387 L 1540.189 1563.17 L 1544.499 1562.615 C 1548.602 1562.072 1552.758 1561.711 1557.016 1561.711 C 1605.962 1561.726 1647.186 1598.311 1653.036 1646.926 L 1653.41 1650.166 L 1656.249 1651.78 C 1686.572 1668.979 1705.34 1701.13 1705.415 1736.001 C 1705.415 1789.394 1662.005 1832.822 1608.633 1832.822 L 1280.053 1832.822 L 1280.053 1832.809 Z " fill="rgb(22,232,202)"/><path d=" M 1453.782 1516.528 C 1486.372 1516.588 1516.413 1534.171 1532.433 1562.563 L 1536.705 1570.128 L 1545.325 1569.018 C 1549.828 1568.437 1553.532 1568.166 1557.016 1568.166 C 1602.693 1568.178 1641.165 1602.319 1646.623 1647.688 L 1647.397 1654.168 L 1653.075 1657.383 C 1681.377 1673.433 1698.895 1703.441 1698.962 1735.988 C 1698.962 1785.818 1658.443 1826.354 1608.633 1826.354 L 1281.859 1826.354 L 1277.743 1826.251 C 1239.199 1825.496 1208.404 1793.918 1208.602 1755.352 C 1208.531 1726.329 1226.2 1700.211 1253.16 1689.488 L 1262.632 1685.68 L 1261.122 1675.585 C 1260.549 1672.081 1260.247 1668.537 1260.219 1664.986 C 1260.219 1625.832 1292.053 1593.984 1331.192 1593.984 C 1337.27 1593.984 1343.528 1594.849 1349.787 1596.541 L 1362.782 1600.065 L 1365.749 1586.923 C 1374.873 1545.654 1411.533 1516.339 1453.782 1516.528 M 1453.782 1503.619 C 1404.617 1503.619 1363.556 1538.035 1353.155 1584.083 C 1345.999 1582.112 1338.614 1581.101 1331.192 1581.075 C 1284.868 1581.075 1247.314 1618.643 1247.314 1664.986 C 1247.314 1669.259 1247.74 1673.416 1248.347 1677.508 C 1216.555 1690.267 1195.712 1721.084 1195.698 1755.352 C 1195.711 1800.837 1231.968 1838.019 1277.42 1839.16 L 1277.42 1839.263 L 1608.633 1839.263 C 1665.647 1839.263 1711.867 1793.025 1711.867 1735.988 C 1711.867 1698.774 1691.832 1664.444 1659.437 1646.151 C 1653.307 1594.966 1609.833 1555.256 1557.016 1555.256 C 1552.487 1555.256 1548.047 1555.643 1543.673 1556.212 C 1525.402 1523.727 1491.041 1503.623 1453.782 1503.619 Z " fill="rgb(153,63,255)" fill-opacity="0.5"/></g><g><path d=" M 2183.545 1832.809 L 2181.081 1832.705 C 2139.025 1831.887 2105.423 1797.432 2105.643 1755.352 C 2105.565 1723.689 2124.841 1695.196 2154.253 1683.498 L 2158.989 1681.601 L 2158.214 1676.553 C 2157.602 1672.727 2157.283 1668.861 2157.259 1664.986 C 2157.259 1622.269 2191.985 1587.53 2234.685 1587.53 C 2241.356 1587.53 2248.17 1588.459 2254.957 1590.305 L 2261.461 1592.074 L 2262.932 1585.503 C 2272.725 1541.287 2312.005 1509.882 2357.275 1510.073 C 2392.091 1510.073 2424.377 1528.973 2441.54 1559.387 L 2443.682 1563.17 L 2447.992 1562.615 C 2452.095 1562.072 2456.25 1561.711 2460.509 1561.711 C 2509.455 1561.726 2550.679 1598.311 2556.529 1646.926 L 2556.903 1650.166 L 2559.742 1651.78 C 2590.065 1668.979 2608.833 1701.13 2608.907 1736.001 C 2608.907 1789.394 2565.498 1832.822 2512.126 1832.822 L 2183.545 1832.822 L 2183.545 1832.809 Z " fill="rgb(22,232,202)"/><path d=" M 2357.275 1516.528 C 2389.865 1516.588 2419.906 1534.171 2435.926 1562.563 L 2440.198 1570.128 L 2448.818 1569.018 C 2453.321 1568.437 2457.025 1568.166 2460.509 1568.166 C 2506.186 1568.178 2544.657 1602.319 2550.116 1647.688 L 2550.89 1654.168 L 2556.568 1657.383 C 2584.87 1673.433 2602.388 1703.441 2602.455 1735.988 C 2602.455 1785.818 2561.936 1826.354 2512.126 1826.354 L 2185.352 1826.354 L 2181.235 1826.251 C 2142.692 1825.496 2111.897 1793.918 2112.095 1755.352 C 2112.024 1726.329 2129.693 1700.211 2156.653 1689.488 L 2166.125 1685.68 L 2164.615 1675.585 C 2164.042 1672.081 2163.74 1668.537 2163.712 1664.986 C 2163.712 1625.832 2195.546 1593.984 2234.685 1593.984 C 2240.763 1593.984 2247.021 1594.849 2253.28 1596.541 L 2266.274 1600.065 L 2269.242 1586.923 C 2278.366 1545.654 2315.026 1516.339 2357.275 1516.528 M 2357.275 1503.619 C 2308.11 1503.619 2267.049 1538.035 2256.648 1584.083 C 2249.492 1582.113 2242.107 1581.101 2234.685 1581.075 C 2188.361 1581.075 2150.807 1618.643 2150.807 1664.986 C 2150.807 1669.259 2151.233 1673.416 2151.84 1677.508 C 2120.047 1690.267 2099.205 1721.084 2099.19 1755.352 C 2099.204 1800.837 2135.461 1838.019 2180.913 1839.16 L 2180.913 1839.263 L 2512.126 1839.263 C 2569.14 1839.263 2615.359 1793.025 2615.359 1735.988 C 2615.36 1698.774 2595.324 1664.444 2562.93 1646.151 C 2556.8 1594.966 2513.326 1555.256 2460.509 1555.256 C 2455.979 1555.256 2451.54 1555.643 2447.166 1556.212 C 2428.895 1523.727 2394.534 1503.623 2357.275 1503.619 Z " fill="rgb(153,63,255)" fill-opacity="0.5"/></g><g><path d=" M 1690.814 1879.341 L 1687.639 1879.207 C 1633.456 1878.153 1590.165 1833.762 1590.447 1779.549 C 1590.348 1738.755 1615.182 1702.046 1653.075 1686.975 L 1659.176 1684.53 L 1658.179 1678.027 C 1657.39 1673.098 1656.979 1668.117 1656.949 1663.125 C 1656.949 1608.09 1701.687 1563.333 1756.7 1563.333 C 1765.295 1563.333 1774.074 1564.531 1782.819 1566.909 L 1791.198 1569.188 L 1793.093 1560.722 C 1805.71 1503.756 1856.317 1463.295 1914.64 1463.541 C 1959.495 1463.541 2001.092 1487.891 2023.203 1527.076 L 2025.963 1531.949 L 2031.516 1531.234 C 2036.803 1530.535 2042.156 1530.069 2047.642 1530.069 C 2110.703 1530.088 2163.814 1577.223 2171.351 1639.857 L 2171.833 1644.031 L 2175.491 1646.11 C 2214.557 1668.269 2238.738 1709.691 2238.833 1754.617 C 2238.833 1823.407 2182.906 1879.357 2114.144 1879.357 L 1690.814 1879.357 L 1690.814 1879.341 Z " fill="rgb(22,232,202)"/><path d=" M 1914.64 1471.857 C 1956.627 1471.935 1995.331 1494.589 2015.971 1531.167 L 2021.474 1540.913 L 2032.58 1539.483 C 2038.382 1538.735 2043.154 1538.385 2047.642 1538.385 C 2106.491 1538.401 2156.056 1582.387 2163.088 1640.838 L 2164.086 1649.187 L 2171.401 1653.329 C 2207.865 1674.008 2230.434 1712.669 2230.52 1754.601 C 2230.52 1818.8 2178.317 1871.025 2114.144 1871.025 L 1693.142 1871.025 L 1687.838 1870.891 C 1638.18 1869.919 1598.505 1829.236 1598.76 1779.549 C 1598.669 1742.156 1621.433 1708.506 1656.167 1694.692 L 1668.37 1689.786 L 1666.425 1676.78 C 1665.687 1672.265 1665.297 1667.7 1665.261 1663.125 C 1665.261 1612.68 1706.276 1571.649 1756.7 1571.649 C 1764.531 1571.649 1772.594 1572.764 1780.657 1574.942 L 1797.399 1579.483 L 1801.223 1562.552 C 1812.977 1509.382 1860.208 1471.614 1914.64 1471.857 M 1914.64 1455.225 C 1851.298 1455.225 1798.396 1499.566 1784.996 1558.892 C 1775.777 1556.354 1766.262 1555.051 1756.7 1555.017 C 1697.018 1555.017 1648.636 1603.419 1648.636 1663.125 C 1648.636 1668.63 1649.185 1673.986 1649.966 1679.258 C 1609.006 1695.696 1582.153 1735.398 1582.135 1779.549 C 1582.152 1838.15 1628.864 1886.053 1687.423 1887.523 L 1687.423 1887.657 L 2114.144 1887.657 C 2187.599 1887.657 2247.146 1828.085 2247.146 1754.601 C 2247.146 1706.656 2221.333 1662.427 2179.597 1638.859 C 2171.7 1572.913 2115.69 1521.753 2047.642 1521.753 C 2041.807 1521.753 2036.088 1522.252 2030.452 1522.984 C 2006.913 1481.132 1962.643 1455.231 1914.64 1455.225 Z " fill="rgb(153,63,255)" fill-opacity="0.5"/></g><g><path d=" M 1256.227 1020.426 L 1256.758 1020.179 C 1264.105 1017.182 1271.289 1019.562 1278.996 1021.957 C 1318.017 1034.049 1374.607 1069.232 1404.72 1106.295 C 1409.469 1112.138 1414.599 1118.062 1413.618 1125.846 C 1412.62 1133.594 1406.75 1139.392 1399.971 1143.977 C 1381.657 1156.442 1357.153 1169.855 1332.028 1181.662 L 1330.931 1182.174 C 1305.776 1193.822 1279.718 1203.996 1258.438 1210.002 C 1250.552 1212.215 1242.321 1213.038 1235.765 1208.77 C 1229.191 1204.554 1227.917 1196.831 1226.513 1189.384 C 1217.522 1142.555 1226.905 1076.553 1242.78 1038.895 C 1245.884 1031.414 1248.643 1024.395 1255.677 1020.726 L 1256.243 1020.462 L 1256.227 1020.426 Z " fill-rule="evenodd" fill="rgb(26,200,174)"/><clipPath id="_clipPath_oCdXVmZcyiyKnhKnNTcixKI4qYns9yKy"><path d=" M 1256.227 1020.426 L 1256.758 1020.179 C 1264.105 1017.182 1271.289 1019.562 1278.996 1021.957 C 1318.017 1034.049 1374.607 1069.232 1404.72 1106.295 C 1409.469 1112.138 1414.599 1118.062 1413.618 1125.846 C 1412.62 1133.594 1406.75 1139.392 1399.971 1143.977 C 1381.657 1156.442 1357.153 1169.855 1332.028 1181.662 L 1330.931 1182.174 C 1305.776 1193.822 1279.718 1203.996 1258.438 1210.002 C 1250.552 1212.215 1242.321 1213.038 1235.765 1208.77 C 1229.191 1204.554 1227.917 1196.831 1226.513 1189.384 C 1217.522 1142.555 1226.905 1076.553 1242.78 1038.895 C 1245.884 1031.414 1248.643 1024.395 1255.677 1020.726 L 1256.243 1020.462 L 1256.227 1020.426 Z " fill-rule="evenodd" fill="rgb(255,255,255)"/></clipPath><g clip-path="url(#_clipPath_oCdXVmZcyiyKnhKnNTcixKI4qYns9yKy)"><g><path d=" M 1260.271 1013.67 L 1260.802 1013.422 C 1268.133 1010.39 1275.317 1012.771 1283.024 1015.165 C 1322.062 1027.293 1378.636 1062.44 1408.748 1099.503 C 1413.513 1105.382 1418.592 1111.287 1417.646 1119.054 C 1416.665 1126.838 1410.779 1132.6 1404.015 1137.221 C 1382.346 1151.471 1359.628 1164.057 1336.056 1174.87 L 1334.959 1175.382 C 1311.539 1186.489 1287.311 1195.804 1262.482 1203.245 C 1254.597 1205.458 1246.365 1206.282 1239.81 1202.014 C 1236.99 1200.195 1235.147 1197.748 1233.848 1194.961 C 1232.11 1191.232 1231.346 1186.896 1230.523 1182.644 C 1221.534 1135.728 1230.95 1069.796 1246.792 1032.068 C 1249.947 1024.605 1252.706 1017.587 1259.757 1013.953 L 1259.741 1013.917 L 1260.307 1013.653 L 1260.271 1013.67 Z " fill-rule="evenodd" fill="rgb(22,232,202)"/></g></g><radialGradient id="_rgradient_4" fx="0.5" fy="0.5" cx="0.5" cy="0.5" r="1" gradientTransform="matrix(21.088,-9.838,9.834,21.097,1241.917,1126.779)" gradientUnits="userSpaceOnUse"><stop offset="0%" stop-opacity="1" style="stop-color:rgb(29,29,29)"/><stop offset="100%" stop-opacity="1" style="stop-color:rgb(0,0,0)"/></radialGradient><path d=" M 1246.834 1137.328 C 1244.12 1131.506 1246.642 1124.575 1252.461 1121.86 C 1258.281 1119.146 1265.208 1121.668 1267.922 1127.49 C 1270.636 1133.312 1268.114 1140.243 1262.295 1142.957 C 1256.475 1145.672 1249.547 1143.15 1246.834 1137.328 Z " fill="url(#_rgradient_4)"/><clipPath id="_clipPath_sim1RcUMkrT1Ts8RiYjwIcH9IjfsmaXX"><path d=" M 1246.834 1137.328 C 1244.12 1131.506 1246.642 1124.575 1252.461 1121.86 C 1258.281 1119.146 1265.208 1121.668 1267.922 1127.49 C 1270.636 1133.312 1268.114 1140.243 1262.295 1142.957 C 1256.475 1145.672 1249.547 1143.15 1246.834 1137.328 Z " fill="rgb(255,255,255)"/></clipPath><g clip-path="url(#_clipPath_sim1RcUMkrT1Ts8RiYjwIcH9IjfsmaXX)"><g><path d=" M 1250.839 1142.225 C 1249.665 1139.705 1250.756 1136.704 1253.275 1135.529 C 1255.795 1134.354 1258.794 1135.446 1259.968 1137.966 C 1261.143 1140.486 1260.051 1143.487 1257.532 1144.662 C 1255.013 1145.837 1252.014 1144.745 1250.839 1142.225 Z " fill="rgb(255,255,255)"/><path d=" M 1253.458 1132.04 C 1252.866 1130.77 1253.416 1129.258 1254.686 1128.666 C 1255.955 1128.074 1257.466 1128.624 1258.058 1129.894 C 1258.65 1131.164 1258.1 1132.675 1256.83 1133.268 C 1255.561 1133.86 1254.05 1133.309 1253.458 1132.04 Z " fill="rgb(255,255,255)"/></g></g><radialGradient id="_rgradient_5" fx="0.5" fy="0.5" cx="0.5" cy="0.5" r="1" gradientTransform="matrix(21.088,-9.838,9.834,21.097,1325.775,1087.66)" gradientUnits="userSpaceOnUse"><stop offset="0%" stop-opacity="1" style="stop-color:rgb(29,29,29)"/><stop offset="100%" stop-opacity="1" style="stop-color:rgb(0,0,0)"/></radialGradient><path d=" M 1330.692 1098.208 C 1327.978 1092.386 1330.5 1085.456 1336.319 1082.741 C 1342.139 1080.026 1349.067 1082.549 1351.78 1088.371 C 1354.494 1094.192 1351.973 1101.123 1346.153 1103.838 C 1340.334 1106.553 1333.406 1104.03 1330.692 1098.208 Z " fill="url(#_rgradient_5)"/><clipPath id="_clipPath_Xq5nPVjxITVnXqCB1kINz2Ix2COgISo9"><path d=" M 1330.692 1098.208 C 1327.978 1092.386 1330.5 1085.456 1336.319 1082.741 C 1342.139 1080.026 1349.067 1082.549 1351.78 1088.371 C 1354.494 1094.192 1351.973 1101.123 1346.153 1103.838 C 1340.334 1106.553 1333.406 1104.03 1330.692 1098.208 Z " fill="rgb(255,255,255)"/></clipPath><g clip-path="url(#_clipPath_Xq5nPVjxITVnXqCB1kINz2Ix2COgISo9)"><g><path d=" M 1334.662 1103.122 C 1333.488 1100.602 1334.579 1097.601 1337.098 1096.426 C 1339.618 1095.251 1342.617 1096.343 1343.791 1098.863 C 1344.966 1101.383 1343.874 1104.384 1341.355 1105.559 C 1338.836 1106.734 1335.837 1105.642 1334.662 1103.122 Z " fill="rgb(255,255,255)"/><path d=" M 1337.316 1092.92 C 1336.724 1091.65 1337.274 1090.139 1338.544 1089.546 C 1339.813 1088.954 1341.324 1089.504 1341.916 1090.774 C 1342.508 1092.044 1341.958 1093.556 1340.689 1094.148 C 1339.419 1094.74 1337.908 1094.19 1337.316 1092.92 Z " fill="rgb(255,255,255)"/></g></g><path d=" M 1306.237 1127.716 L 1307.334 1127.204 C 1310.13 1126.12 1313.056 1125.406 1316.037 1125.083 C 1317.581 1124.912 1319.137 1124.878 1320.686 1124.983 C 1323.225 1125.153 1325.735 1125.632 1328.158 1126.411 C 1331.525 1127.52 1334.636 1129.292 1337.307 1131.623 C 1340.063 1134.07 1342.21 1137.126 1343.578 1140.549 L 1343.201 1141.587 L 1342.163 1141.209 L 1341.762 1140.534 C 1338.727 1135.579 1333.824 1132.056 1328.161 1130.762 C 1324.868 1129.895 1321.436 1129.695 1318.064 1130.171 C 1315.146 1130.543 1312.302 1131.361 1309.632 1132.597 L 1308.429 1133.158 C 1305.387 1134.704 1302.576 1136.668 1300.078 1138.993 L 1299.611 1139.469 C 1297.263 1141.891 1295.37 1144.716 1294.021 1147.808 C 1293.033 1150.185 1292.433 1152.706 1292.245 1155.273 C 1292.137 1157.455 1292.33 1159.642 1292.818 1161.772 L 1293.445 1163.763 L 1293.511 1163.905 L 1293.133 1164.943 L 1292.096 1164.565 C 1288.942 1159.066 1288.193 1152.51 1290.023 1146.441 C 1291.54 1140.995 1294.633 1136.118 1298.912 1132.426 L 1299.842 1131.647 C 1300.592 1131.039 1301.375 1130.501 1302.194 1129.947 L 1303.189 1129.31 L 1304.645 1128.459 L 1306.237 1127.716 Z  M 1253.326 1100.427 L 1254.318 1102.463 L 1253.631 1104.594 L 1243.37 1116.405 L 1241.351 1117.433 L 1239.205 1116.71 L 1238.177 1114.69 L 1238.9 1112.543 L 1249.144 1100.697 L 1251.196 1099.74 L 1253.326 1100.427 Z  M 1321.609 1066.892 L 1337.265 1066.656 L 1339.373 1067.483 L 1340.243 1069.534 L 1339.417 1071.643 L 1337.384 1072.548 L 1321.709 1072.836 L 1319.6 1072.01 L 1318.714 1069.924 L 1319.54 1067.814 L 1321.609 1066.892 Z " fill="rgb(46,13,25)"/></g><g><path d=" M 2662.49 1172.475 L 2663.021 1172.723 C 2670.039 1176.427 2672.833 1183.463 2675.954 1190.908 C 2691.777 1228.585 2701.211 1294.568 2692.187 1341.469 C 2690.765 1348.864 2689.526 1356.603 2682.936 1360.855 C 2676.361 1365.071 2668.148 1364.299 2660.28 1362.05 C 2638.964 1356.028 2612.941 1345.871 2587.75 1334.206 L 2586.654 1333.694 C 2561.564 1321.904 2537.024 1308.474 2518.747 1296.026 C 2511.983 1291.406 2506.061 1285.627 2505.116 1277.859 C 2504.118 1270.111 2509.213 1264.171 2514.014 1258.308 C 2544.093 1221.316 2600.665 1186.082 2639.705 1174.041 C 2647.428 1171.611 2654.576 1169.214 2661.908 1172.246 L 2662.474 1172.51 L 2662.49 1172.475 Z " fill-rule="evenodd" fill="rgb(122,67,242)"/><clipPath id="_clipPath_3VxWL0omIoKOQxbQQ6iWzUpswuOV8rum"><path d=" M 2662.49 1172.475 L 2663.021 1172.723 C 2670.039 1176.427 2672.833 1183.463 2675.954 1190.908 C 2691.777 1228.585 2701.211 1294.568 2692.187 1341.469 C 2690.765 1348.864 2689.526 1356.603 2682.936 1360.855 C 2676.361 1365.071 2668.148 1364.299 2660.28 1362.05 C 2641.26 1356.677 2618.494 1348.012 2595.915 1337.921 C 2593.188 1336.702 2590.465 1335.463 2587.75 1334.206 L 2586.654 1333.694 C 2561.564 1321.904 2537.024 1308.474 2518.747 1296.026 C 2511.983 1291.406 2506.061 1285.627 2505.116 1277.859 C 2504.118 1270.111 2509.213 1264.171 2514.014 1258.308 C 2544.093 1221.316 2600.665 1186.082 2639.705 1174.041 C 2647.428 1171.611 2654.576 1169.214 2661.908 1172.246 L 2662.474 1172.51 L 2662.49 1172.475 Z " fill-rule="evenodd" fill="rgb(255,255,255)"/></clipPath><g clip-path="url(#_clipPath_3VxWL0omIoKOQxbQQ6iWzUpswuOV8rum)"><g><path d=" M 2670.264 1171.232 L 2670.794 1171.479 C 2677.829 1175.149 2680.623 1182.184 2683.744 1189.63 C 2699.55 1227.342 2709.001 1293.289 2699.977 1340.19 C 2698.538 1347.62 2697.281 1355.308 2690.726 1359.576 C 2684.135 1363.827 2675.938 1363.02 2668.053 1360.807 C 2643.212 1353.361 2618.972 1344.041 2595.54 1332.927 L 2594.443 1332.416 C 2570.884 1321.607 2548.178 1309.027 2526.52 1294.783 C 2519.757 1290.162 2513.835 1284.383 2512.889 1276.616 C 2511.908 1268.832 2516.987 1262.927 2521.752 1257.048 C 2551.9 1220.002 2608.438 1184.838 2647.511 1172.727 C 2655.254 1170.349 2662.402 1167.952 2669.716 1171.019 L 2669.733 1170.984 L 2670.299 1171.248 L 2670.264 1171.232 Z " fill-rule="evenodd" fill="rgb(136,84,248)"/></g></g><radialGradient id="_rgradient_6" fx="0.5" fy="0.5" cx="0.5" cy="0.5" r="1" gradientTransform="matrix(21.088,9.838,-9.834,21.097,2571.854,1229.871)" gradientUnits="userSpaceOnUse"><stop offset="0%" stop-opacity="1" style="stop-color:rgb(29,29,29)"/><stop offset="100%" stop-opacity="1" style="stop-color:rgb(0,0,0)"/></radialGradient><path d=" M 2566.937 1240.419 C 2569.65 1234.598 2576.578 1232.075 2582.398 1234.79 C 2588.217 1237.505 2590.739 1244.435 2588.025 1250.257 C 2585.311 1256.079 2578.384 1258.601 2572.564 1255.887 C 2566.745 1253.172 2564.223 1246.241 2566.937 1240.419 Z " fill="url(#_rgradient_6)"/><clipPath id="_clipPath_XzvwZh33sJFfozwUxN81Pphg2SvmGHOJ"><path d=" M 2566.937 1240.419 C 2569.65 1234.598 2576.578 1232.075 2582.398 1234.79 C 2588.217 1237.505 2590.739 1244.435 2588.025 1250.257 C 2585.311 1256.079 2578.384 1258.601 2572.564 1255.887 C 2566.745 1253.172 2564.223 1246.241 2566.937 1240.419 Z " fill="rgb(255,255,255)"/></clipPath><g clip-path="url(#_clipPath_XzvwZh33sJFfozwUxN81Pphg2SvmGHOJ)"><g><path d=" M 2565.762 1246.637 C 2566.936 1244.117 2569.935 1243.025 2572.455 1244.2 C 2574.974 1245.375 2576.065 1248.375 2574.891 1250.896 C 2573.716 1253.416 2570.717 1254.508 2568.198 1253.333 C 2565.678 1252.157 2564.587 1249.157 2565.762 1246.637 Z " fill="rgb(255,255,255)"/><path d=" M 2575.244 1242.097 C 2575.836 1240.827 2577.347 1240.277 2578.616 1240.869 C 2579.886 1241.461 2580.436 1242.973 2579.844 1244.243 C 2579.252 1245.513 2577.741 1246.063 2576.472 1245.471 C 2575.202 1244.878 2574.652 1243.367 2575.244 1242.097 Z " fill="rgb(255,255,255)"/></g></g><radialGradient id="_rgradient_7" fx="0.5" fy="0.5" cx="0.5" cy="0.5" r="1" gradientTransform="matrix(21.088,9.838,-9.834,21.097,2655.712,1268.99)" gradientUnits="userSpaceOnUse"><stop offset="0%" stop-opacity="1" style="stop-color:rgb(29,29,29)"/><stop offset="100%" stop-opacity="1" style="stop-color:rgb(0,0,0)"/></radialGradient><path d=" M 2650.795 1279.539 C 2653.509 1273.717 2660.437 1271.194 2666.256 1273.909 C 2672.076 1276.624 2674.597 1283.555 2671.884 1289.377 C 2669.17 1295.198 2662.242 1297.721 2656.422 1295.006 C 2650.603 1292.291 2648.081 1285.361 2650.795 1279.539 Z " fill="url(#_rgradient_7)"/><clipPath id="_clipPath_WWrkh4zj2Zd7IIXUj5cz6kKjEyyPsyIZ"><path d=" M 2650.795 1279.539 C 2653.509 1273.717 2660.437 1271.194 2666.256 1273.909 C 2672.076 1276.624 2674.597 1283.555 2671.884 1289.377 C 2669.17 1295.198 2662.242 1297.721 2656.422 1295.006 C 2650.603 1292.291 2648.081 1285.361 2650.795 1279.539 Z " fill="rgb(255,255,255)"/></clipPath><g clip-path="url(#_clipPath_WWrkh4zj2Zd7IIXUj5cz6kKjEyyPsyIZ)"><g><path d=" M 2649.585 1285.74 C 2650.759 1283.22 2653.758 1282.128 2656.277 1283.303 C 2658.797 1284.478 2659.888 1287.478 2658.713 1289.999 C 2657.539 1292.519 2654.54 1293.611 2652.021 1292.436 C 2649.501 1291.26 2648.41 1288.26 2649.585 1285.74 Z " fill="rgb(255,255,255)"/><path d=" M 2659.102 1281.216 C 2659.694 1279.947 2661.205 1279.396 2662.475 1279.988 C 2663.744 1280.581 2664.294 1282.092 2663.702 1283.362 C 2663.11 1284.632 2661.599 1285.182 2660.33 1284.59 C 2659.061 1283.998 2658.511 1282.486 2659.102 1281.216 Z " fill="rgb(255,255,255)"/></g></g><path d=" M 2612.48 1279.765 L 2613.577 1280.277 C 2616.205 1281.722 2618.632 1283.506 2620.796 1285.583 C 2621.92 1286.656 2622.945 1287.827 2623.861 1289.082 C 2625.363 1291.137 2626.609 1293.368 2627.57 1295.725 C 2628.886 1299.018 2629.528 1302.542 2629.46 1306.087 C 2629.358 1309.772 2628.398 1313.382 2626.657 1316.63 L 2625.619 1317.008 L 2625.241 1315.97 L 2625.501 1315.229 C 2627.344 1309.718 2626.89 1303.696 2624.241 1298.524 C 2622.788 1295.444 2620.735 1292.684 2618.203 1290.407 C 2616.042 1288.409 2613.588 1286.756 2610.925 1285.504 L 2609.722 1284.942 C 2606.583 1283.605 2603.272 1282.713 2599.886 1282.293 L 2599.221 1282.242 C 2595.857 1281.999 2592.477 1282.364 2589.243 1283.318 C 2586.787 1284.089 2584.472 1285.25 2582.385 1286.756 C 2580.645 1288.076 2579.094 1289.629 2577.778 1291.372 L 2576.655 1293.133 L 2576.589 1293.274 L 2575.552 1293.652 L 2575.174 1292.614 C 2577.358 1286.663 2581.896 1281.874 2587.72 1279.376 C 2592.865 1277.037 2598.587 1276.273 2604.166 1277.179 L 2605.359 1277.391 C 2606.307 1277.575 2607.223 1277.829 2608.173 1278.1 L 2609.301 1278.454 L 2610.888 1279.022 L 2612.48 1279.765 Z  M 2599.366 1221.675 L 2598.445 1223.745 L 2596.372 1224.588 L 2580.732 1224.316 L 2578.647 1223.43 L 2577.821 1221.321 L 2578.707 1219.235 L 2580.815 1218.408 L 2596.471 1218.644 L 2598.524 1219.602 L 2599.366 1221.675 Z  M 2668.936 1252.449 L 2679.181 1264.295 L 2679.903 1266.442 L 2678.892 1268.427 L 2676.746 1269.149 L 2674.745 1268.173 L 2664.449 1256.346 L 2663.727 1254.199 L 2664.754 1252.179 L 2666.9 1251.456 L 2668.936 1252.449 Z " fill="rgb(46,13,25)"/></g><path d=" M 2555.173 1404.874 C 2547.259 1404.874 2539.086 1409.468 2535.162 1417.526 C 2533.988 1420.08 2535.074 1423.105 2537.605 1424.327 C 2540.135 1425.549 2543.178 1424.519 2544.447 1422.01 C 2546.362 1418.075 2551.771 1415.123 2555.173 1415.123 C 2560.254 1415.123 2566.698 1419.035 2566.698 1426.653 C 2566.698 1434.329 2560.285 1440.745 2552.611 1440.745 L 2492.425 1440.745 C 2490.556 1440.686 2488.803 1441.649 2487.852 1443.259 C 2486.9 1444.869 2486.9 1446.869 2487.852 1448.479 C 2488.803 1450.089 2490.556 1451.052 2492.425 1450.993 L 2552.611 1450.993 C 2565.947 1450.993 2576.942 1439.994 2576.942 1426.653 C 2576.942 1413.26 2565.658 1404.874 2555.173 1404.874 Z  M 2491.943 1461.242 C 2489.114 1461.375 2486.929 1463.777 2487.062 1466.607 C 2487.194 1469.437 2489.596 1471.624 2492.425 1471.491 L 2585.666 1471.491 C 2585.827 1471.501 2585.986 1471.501 2586.147 1471.491 C 2596.718 1471.712 2605.159 1480.371 2605.115 1490.948 C 2605.115 1496.193 2602.874 1500.284 2599.511 1503.277 C 2596.151 1506.27 2591.618 1507.843 2588.227 1507.843 C 2582.124 1507.843 2576.702 1506.521 2572.622 1497.353 C 2572.03 1495.469 2570.411 1494.092 2568.457 1493.81 C 2567.234 1491.754 2564.754 1490.817 2562.477 1491.55 C 2560.201 1492.283 2558.733 1494.492 2558.938 1496.875 C 2559.143 1499.258 2560.967 1501.184 2563.335 1501.517 C 2568.88 1513.956 2579.562 1518.089 2588.229 1518.089 C 2594.581 1518.089 2601.104 1515.519 2606.316 1510.884 C 2611.528 1506.249 2615.359 1499.285 2615.359 1490.948 C 2615.359 1474.893 2602.485 1461.79 2586.547 1461.321 C 2586.414 1461.29 2586.281 1461.264 2586.147 1461.242 L 2492.425 1461.242 C 2492.264 1461.232 2492.103 1461.232 2491.943 1461.242 Z  M 2491.943 1479.177 C 2489.114 1479.31 2486.929 1481.712 2487.062 1484.542 C 2487.194 1487.373 2489.596 1489.559 2492.425 1489.426 L 2521.878 1489.426 C 2522.039 1489.436 2522.198 1489.436 2522.359 1489.426 C 2529.812 1489.687 2535.964 1496.001 2535.964 1503.518 C 2535.964 1507.282 2534.473 1509.913 2532.202 1511.924 C 2529.933 1513.936 2526.79 1515.048 2524.439 1515.048 C 2521.588 1515.048 2517.946 1514.476 2514.194 1509.442 C 2513.201 1507.741 2511.324 1506.758 2509.361 1506.91 C 2507.4 1507.072 2505.702 1508.339 2504.99 1510.174 C 2504.278 1512.011 2504.683 1514.094 2506.032 1515.529 C 2511.692 1523.113 2519.247 1525.296 2524.439 1525.296 C 2529.592 1525.296 2534.824 1523.306 2539.007 1519.611 C 2543.609 1515.532 2546.233 1509.669 2546.209 1503.518 C 2546.209 1490.476 2535.682 1479.728 2522.759 1479.257 C 2522.649 1479.229 2522.549 1479.198 2522.439 1479.177 L 2492.425 1479.177 C 2492.264 1479.167 2492.103 1479.167 2491.943 1479.177 Z " fill="rgb(68,173,220)"/><path d=" M 1283.202 1525.296 C 1291.116 1525.296 1299.288 1520.702 1303.212 1512.644 C 1304.387 1510.091 1303.301 1507.066 1300.77 1505.844 C 1298.239 1504.622 1295.196 1505.652 1293.928 1508.161 C 1292.012 1512.096 1286.603 1515.048 1283.202 1515.048 C 1278.121 1515.048 1271.677 1511.135 1271.677 1503.518 C 1271.677 1495.842 1278.09 1489.426 1285.763 1489.426 L 1345.95 1489.426 C 1347.819 1489.485 1349.571 1488.522 1350.523 1486.912 C 1351.475 1485.302 1351.475 1483.301 1350.523 1481.692 C 1349.571 1480.082 1347.819 1479.118 1345.95 1479.177 L 1285.763 1479.177 C 1272.427 1479.177 1261.432 1490.177 1261.432 1503.518 C 1261.432 1516.91 1272.717 1525.296 1283.202 1525.296 Z  M 1346.431 1468.929 C 1349.26 1468.796 1351.446 1466.393 1351.313 1463.563 C 1351.18 1460.733 1348.779 1458.547 1345.95 1458.68 L 1252.709 1458.68 C 1252.548 1458.67 1252.389 1458.67 1252.227 1458.68 C 1241.657 1458.459 1233.215 1449.8 1233.26 1439.223 C 1233.26 1433.978 1235.501 1429.886 1238.863 1426.894 C 1242.224 1423.901 1246.757 1422.328 1250.148 1422.328 C 1256.251 1422.328 1261.673 1423.65 1265.753 1432.817 C 1266.344 1434.701 1267.963 1436.079 1269.917 1436.361 C 1271.14 1438.416 1273.621 1439.354 1275.897 1438.621 C 1278.173 1437.888 1279.641 1435.679 1279.436 1433.296 C 1279.231 1430.912 1277.407 1428.987 1275.039 1428.654 C 1269.495 1416.214 1258.812 1412.082 1250.145 1412.082 C 1243.794 1412.082 1237.27 1414.651 1232.058 1419.286 C 1226.846 1423.921 1223.015 1430.885 1223.015 1439.223 C 1223.015 1455.277 1235.89 1468.38 1251.828 1468.849 C 1251.96 1468.88 1252.093 1468.907 1252.227 1468.929 L 1345.95 1468.929 C 1346.11 1468.939 1346.271 1468.939 1346.431 1468.929 Z  M 1346.431 1450.993 C 1349.26 1450.86 1351.446 1448.458 1351.313 1445.628 C 1351.18 1442.798 1348.779 1440.612 1345.95 1440.745 L 1316.497 1440.745 C 1316.335 1440.734 1316.177 1440.734 1316.015 1440.745 C 1308.562 1440.483 1302.41 1434.17 1302.41 1426.653 C 1302.41 1422.889 1303.901 1420.258 1306.173 1418.246 C 1308.442 1416.235 1311.584 1415.123 1313.936 1415.123 C 1316.786 1415.123 1320.428 1415.694 1324.18 1420.729 C 1325.173 1422.429 1327.05 1423.413 1329.013 1423.26 C 1330.975 1423.099 1332.672 1421.832 1333.385 1419.996 C 1334.096 1418.159 1333.691 1416.077 1332.343 1414.641 C 1326.682 1407.057 1319.127 1404.874 1313.936 1404.874 C 1308.783 1404.874 1303.55 1406.865 1299.368 1410.56 C 1294.766 1414.638 1292.142 1420.502 1292.166 1426.653 C 1292.166 1439.694 1302.692 1450.442 1315.616 1450.914 C 1315.726 1450.942 1315.826 1450.973 1315.936 1450.993 L 1345.95 1450.993 C 1346.11 1451.003 1346.271 1451.003 1346.431 1450.993 Z " fill="rgb(68,173,220)"/></g></svg>