<svg id="Layer_1" data-name="Layer 1" xmlns="http://www.w3.org/2000/svg" xmlns:xlink="http://www.w3.org/1999/xlink" viewBox="0 0 1920 458.08"><defs><style>.cls-1{fill:url(#linear-gradient);}.cls-2{fill:url(#linear-gradient-2);}.cls-3{fill:url(#linear-gradient-3);}.cls-4{fill:url(#linear-gradient-4);}.cls-5{fill:url(#linear-gradient-5);}.cls-6{fill:url(#linear-gradient-6);}.cls-7{fill:url(#linear-gradient-7);}.cls-8{fill:url(#linear-gradient-8);}.cls-9{fill:url(#linear-gradient-9);}.cls-10{fill:url(#linear-gradient-10);}.cls-11{fill:url(#linear-gradient-11);}.cls-12{fill:url(#linear-gradient-12);}.cls-13{fill:url(#linear-gradient-13);}</style><linearGradient id="linear-gradient" x1="1590.19" y1="95.52" x2="1580.8" y2="445.39" gradientUnits="userSpaceOnUse"><stop offset="0" stop-color="#993fff"/><stop offset="0.12" stop-color="#825df6"/><stop offset="0.33" stop-color="#5c8ee6"/><stop offset="0.53" stop-color="#3db5da"/><stop offset="0.72" stop-color="#28d1d1"/><stop offset="0.88" stop-color="#1be2cc"/><stop offset="1" stop-color="#16e8ca"/></linearGradient><linearGradient id="linear-gradient-2" x1="1424.55" y1="90.76" x2="1415.16" y2="440.63" xlink:href="#linear-gradient"/><linearGradient id="linear-gradient-3" x1="139.92" y1="-20.22" x2="128.65" y2="399.67" xlink:href="#linear-gradient"/><linearGradient id="linear-gradient-4" x1="416.08" y1="67.13" x2="406.75" y2="414.84" xlink:href="#linear-gradient"/><linearGradient id="linear-gradient-5" x1="622.08" y1="72.98" x2="612.75" y2="420.69" xlink:href="#linear-gradient"/><linearGradient id="linear-gradient-6" x1="1565.79" y1="96.14" x2="1556.4" y2="446" xlink:href="#linear-gradient"/><linearGradient id="linear-gradient-7" x1="835.88" y1="75.59" x2="826.49" y2="425.46" xlink:href="#linear-gradient"/><linearGradient id="linear-gradient-8" x1="1222.57" y1="87.18" x2="1213.18" y2="437.04" xlink:href="#linear-gradient"/><linearGradient id="linear-gradient-9" x1="1250.67" y1="87.93" x2="1241.28" y2="437.8" xlink:href="#linear-gradient"/><linearGradient id="linear-gradient-10" x1="1217.31" y1="87.03" x2="1207.92" y2="436.9" xlink:href="#linear-gradient"/><linearGradient id="linear-gradient-11" x1="977.01" y1="80.96" x2="967.62" y2="430.83" xlink:href="#linear-gradient"/><linearGradient id="linear-gradient-12" x1="1771.04" y1="27.71" x2="1759.76" y2="447.88" xlink:href="#linear-gradient"/><linearGradient id="linear-gradient-13" x1="1868.06" y1="30.31" x2="1856.78" y2="450.48" gradientUnits="userSpaceOnUse"><stop offset="0" stop-color="#993fff"/><stop offset="0.18" stop-color="#7573f1"/><stop offset="0.38" stop-color="#54a4e3"/><stop offset="0.57" stop-color="#39cbd8"/><stop offset="0.74" stop-color="#26e7d0"/><stop offset="0.89" stop-color="#1af8cc"/><stop offset="1" stop-color="#16feca"/></linearGradient></defs><title>logo</title><polygon id="_Path_" data-name="&lt;Path&gt;" class="cls-1" points="1523.63 323.56 1593.06 323.56 1641.03 453.29 1568.14 453.68 1523.63 323.56"/><polygon id="_Path_2" data-name="&lt;Path&gt;" class="cls-2" points="1455.75 453.88 1382.77 453.81 1383.9 79.25 1456.88 79.32 1455.75 453.88"/><path id="_Path_3" data-name="&lt;Path&gt;" class="cls-3" d="M263.93,375.43h-135A45.51,45.51,0,0,1,83.42,330V130.15a45.51,45.51,0,0,1,45.46-45.46H263V1.27H128.88A128.88,128.88,0,0,0,0,130.15V330A128.88,128.88,0,0,0,128.88,458.85L263,458.63Z" transform="translate(0 -1.27)"/><path id="_Path_4" data-name="&lt;Path&gt;" class="cls-4" d="M502.44,388.6H422.83A37.69,37.69,0,0,1,385.19,351V185.48a37.69,37.69,0,0,1,37.65-37.65h79.61V78.76h-79.6A106.73,106.73,0,0,0,316.11,185.48V351A106.73,106.73,0,0,0,422.83,457.68h79.6Z" transform="translate(0 -1.27)"/><path id="_Path_5" data-name="&lt;Path&gt;" class="cls-5" d="M525.09,388.6h79.61A37.69,37.69,0,0,0,642.34,351V185.48a37.69,37.69,0,0,0-37.65-37.65H525.09V78.76h79.6A106.73,106.73,0,0,1,711.42,185.48V351A106.73,106.73,0,0,1,604.69,457.68h-79.6Z" transform="translate(0 -1.27)"/><path id="_Path_6" data-name="&lt;Path&gt;" class="cls-6" d="M1470.35,237.11l80.1-.33c20.89,0,37.88,1.71,37.88-10.26V158c0-12-17-10.59-37.88-10.59h-80.1V80.74h80.1c59.31,0,107.39,27.54,107.39,61.52v95.38c0,34-48.08,61.52-107.39,61.52h-80.1Z" transform="translate(0 -1.27)"/><polygon id="_Path_7" data-name="&lt;Path&gt;" class="cls-7" points="797.03 457.58 731.5 458.08 864.37 77.14 929.96 76.63 797.03 457.58"/><path id="_Path_8" data-name="&lt;Path&gt;" class="cls-8" d="M1327.08,384.28l-170.15.57a139.15,139.15,0,0,1-58.62,70.21l228.76-.76Z" transform="translate(0 -1.27)"/><path id="_Path_9" data-name="&lt;Path&gt;" class="cls-9" d="M1327.08,300.45v-70l-162.38.48c0,1.23.09,2.45.09,3.68v66.34Z" transform="translate(0 -1.27)"/><path id="_Path_10" data-name="&lt;Path&gt;" class="cls-10" d="M1327.08,82.19l-221.19.72a127.91,127.91,0,0,1,59.75,69.82l161.44-.52Z" transform="translate(0 -1.27)"/><path id="_Path_11" data-name="&lt;Path&gt;" class="cls-11" d="M1011.29,77.58H950.1l-24.33,69.51h85.52A37.92,37.92,0,0,1,1049.17,185v166.5a37.92,37.92,0,0,1-37.88,37.88H842.1l-24.2,69.34H931.19v.16h80.1a107.39,107.39,0,0,0,107.39-107.39V185A107.39,107.39,0,0,0,1011.29,77.58Z" transform="translate(0 -1.27)"/><polygon id="_Path_12" data-name="&lt;Path&gt;" class="cls-12" points="1807.35 109.96 1769.7 2.03 1690.93 1.41 1768.09 222.53 1686 457.87 1764.7 457.28 1807.35 335.05 1846.62 222.53 1807.35 109.96"/><g id="_Group_" data-name="&lt;Group&gt;"><polygon id="_Path_13" data-name="&lt;Path&gt;" class="cls-13" points="1841.51 0.3 1920 0.77 1873.64 148.03 1817.71 0.22 1841.51 0.3"/></g></svg>