<svg id="Layer_1" data-name="Layer 1" xmlns="http://www.w3.org/2000/svg" xmlns:xlink="http://www.w3.org/1999/xlink" viewBox="0 0 3438 813"><defs><style>.cls-1{fill:url(#linear-gradient);}.cls-2{fill:url(#linear-gradient-2);}.cls-3{fill:url(#linear-gradient-3);}.cls-4{fill:url(#linear-gradient-4);}.cls-5{fill:url(#linear-gradient-5);}.cls-6{fill:url(#linear-gradient-6);}.cls-7{fill:url(#linear-gradient-7);}.cls-8{fill:url(#linear-gradient-8);}.cls-9{fill:url(#linear-gradient-9);}.cls-10{fill:url(#linear-gradient-10);}.cls-11{fill:url(#linear-gradient-11);}.cls-12{fill:url(#linear-gradient-12);}.cls-13{fill:url(#linear-gradient-13);}</style><linearGradient id="linear-gradient" x1="2775.54" y1="107.16" x2="2758.87" y2="728.28" gradientUnits="userSpaceOnUse"><stop offset="0" stop-color="#993fff"/><stop offset="0.12" stop-color="#825df6"/><stop offset="0.33" stop-color="#5c8ee6"/><stop offset="0.53" stop-color="#3db5da"/><stop offset="0.72" stop-color="#28d1d1"/><stop offset="0.88" stop-color="#1be2cc"/><stop offset="1" stop-color="#16e8ca"/></linearGradient><linearGradient id="linear-gradient-2" x1="2467.6" y1="98.68" x2="2450.92" y2="719.78" xlink:href="#linear-gradient"/><linearGradient id="linear-gradient-3" x1="240.1" y1="-37.93" x2="220.09" y2="707.43" xlink:href="#linear-gradient"/><linearGradient id="linear-gradient-4" x1="708.84" y1="54.57" x2="692.27" y2="671.84" xlink:href="#linear-gradient"/><linearGradient id="linear-gradient-5" x1="1081.47" y1="64.77" x2="1064.9" y2="682.04" xlink:href="#linear-gradient"/><linearGradient id="linear-gradient-6" x1="2741.42" y1="105.89" x2="2724.75" y2="726.88" xlink:href="#linear-gradient"/><linearGradient id="linear-gradient-7" x1="1447.62" y1="71.84" x2="1430.95" y2="692.76" xlink:href="#linear-gradient"/><linearGradient id="linear-gradient-8" x1="2122.05" y1="91.68" x2="2105.42" y2="711.13" xlink:href="#linear-gradient"/><linearGradient id="linear-gradient-9" x1="2169.86" y1="91.99" x2="2153.22" y2="711.93" xlink:href="#linear-gradient"/><linearGradient id="linear-gradient-10" x1="2112.51" y1="89.91" x2="2095.87" y2="709.85" xlink:href="#linear-gradient"/><linearGradient id="linear-gradient-11" x1="1701.56" y1="79.04" x2="1684.89" y2="699.96" xlink:href="#linear-gradient"/><linearGradient id="linear-gradient-12" x1="3101.11" y1="49.24" x2="3081.06" y2="796.17" xlink:href="#linear-gradient"/><linearGradient id="linear-gradient-13" x1="3324.06" y1="53.35" x2="3304" y2="800.9" gradientUnits="userSpaceOnUse"><stop offset="0" stop-color="#993fff"/><stop offset="0.18" stop-color="#7573f1"/><stop offset="0.38" stop-color="#54a4e3"/><stop offset="0.57" stop-color="#39cbd8"/><stop offset="0.74" stop-color="#26e7d0"/><stop offset="0.89" stop-color="#1af8cc"/><stop offset="1" stop-color="#16feca"/></linearGradient></defs><title>logo</title><polygon id="_Path_" data-name="&lt;Path&gt;" class="cls-1" points="2661.07 511.97 2779.95 511.97 2862.1 742.32 2737.29 743.02 2661.07 511.97"/><polygon id="_Path_2" data-name="&lt;Path&gt;" class="cls-2" points="2520.73 743.37 2395.77 743.25 2397.71 78.18 2522.67 78.3 2520.73 743.37"/><path id="_Path_3" data-name="&lt;Path&gt;" class="cls-3" d="M451.91,664.37H220.67c-42.92,0-77.84-36.21-77.84-80.72V228.84c0-44.51,34.92-80.72,77.84-80.72H450.3V0H220.67C98.8,0,0,102.46,0,228.84v354.8C0,710,98.8,812.49,220.67,812.49l229.63-.39Z"/><path id="_Path_4" data-name="&lt;Path&gt;" class="cls-4" d="M856.27,625.21H720c-35.55,0-64.46-30-64.46-66.85V264.55c0-36.86,28.92-66.85,64.46-66.85h136.3V75H720C619,75,537.23,159.89,537.23,264.55V558.36C537.23,663,619,747.86,720,747.86h136.3Z"/><path id="_Path_5" data-name="&lt;Path&gt;" class="cls-5" d="M915.15,625.21h136.3c35.55,0,64.46-30,64.46-66.85V264.55c0-36.86-28.92-66.85-64.46-66.85H915.15V75h136.3c100.92,0,182.74,84.84,182.74,189.5V558.36c0,104.66-81.82,189.5-182.74,189.5H915.15Z"/><path id="_Path_6" data-name="&lt;Path&gt;" class="cls-6" d="M2577.89,356.23l137.15-.59c35.77,0,64.86,3,64.86-18.22V215.77c0-21.25-29.1-18.81-64.86-18.81H2577.89V78.57H2715c101.55,0,183.87,48.91,183.87,109.24V357.18c0,60.33-82.32,109.24-183.87,109.24H2577.89Z"/><polygon id="_Path_7" data-name="&lt;Path&gt;" class="cls-7" points="1380.78 749.95 1268.57 750.83 1496.09 74.43 1608.39 73.52 1380.78 749.95"/><path id="_Path_8" data-name="&lt;Path&gt;" class="cls-8" d="M2300.42,617.54l-291.33,1c-19,52.37-54.68,96.25-100.37,124.67l391.7-1.35Z"/><path id="_Path_9" data-name="&lt;Path&gt;" class="cls-9" d="M2300.42,468.69V344.37l-278,.86c.06,2.18.16,4.34.16,6.53V469.55Z"/><path id="_Path_10" data-name="&lt;Path&gt;" class="cls-10" d="M2300.42,81.14,1921.7,82.41c47.36,26.53,84.16,70.68,102.3,124l276.42-.93Z"/><path id="_Path_11" data-name="&lt;Path&gt;" class="cls-11" d="M1759.71,73H1654.93l-41.65,123.41h146.43c35.77,0,64.86,30.17,64.86,67.26V559.27c0,37.09-29.1,67.26-64.86,67.26H1470l-41.43,123.12h194v.29h137.15c101.55,0,183.87-85.37,183.87-190.68V263.64C1943.58,158.33,1861.26,73,1759.71,73Z"/><polygon id="_Path_12" data-name="&lt;Path&gt;" class="cls-12" points="3181.97 195.25 3099.14 3.6 2925.82 2.51 3095.59 395.12 2914.97 813 3088.13 811.94 3181.97 594.91 3268.36 395.12 3181.97 195.25"/><g id="_Group_" data-name="&lt;Group&gt;"><polygon id="_Path_13" data-name="&lt;Path&gt;" class="cls-13" points="3265.31 0.53 3438 1.36 3336 262.84 3212.95 0.39 3265.31 0.53"/></g></svg>