<?xml version="1.0" encoding="UTF-8" standalone="no"?><!-- Generator: Gravit.io --><svg xmlns="http://www.w3.org/2000/svg" xmlns:xlink="http://www.w3.org/1999/xlink" style="isolation:isolate" viewBox="0 0 966.043 966.043" width="966.043pt" height="966.043pt"><defs><clipPath id="_clipPath_sHWA5UcRyKnVm9ciNvmiqUxwNsU5Dbwv"><rect x="0" y="0" width="966.043" height="966.043"/></clipPath></defs><g clip-path="url(#_clipPath_sHWA5UcRyKnVm9ciNvmiqUxwNsU5Dbwv)"><circle vector-effect="non-scaling-stroke" cx="483.0216150619571" cy="483.0216150619571" r="483.0216150619571" fill="rgb(153,63,255)"/><path d=" M 273.968 252.05 C 271.712 252.047 269.517 252.723 267.717 253.974 L 232.157 278.516 L 196.639 253.974 C 193.466 251.799 189.233 251.453 185.694 253.081 C 182.155 254.708 179.912 258.031 179.894 261.674 L 179.894 685.143 C 179.894 701.042 193.984 714.016 211.252 714.016 L 643.407 714.016 C 657.372 714.016 670.48 709.011 680.358 699.916 L 770.836 616.608 C 780.673 607.608 786.188 595.356 786.149 582.586 L 786.149 261.674 C 786.149 258.026 783.902 254.715 780.4 253.06 C 776.856 251.432 772.619 251.782 769.446 253.965 L 733.886 278.516 L 698.326 253.974 C 694.635 251.378 689.515 251.378 685.824 253.974 L 650.264 278.516 L 614.704 253.974 C 611.014 251.378 605.893 251.378 602.203 253.974 L 566.643 278.516 L 531.083 253.974 C 527.393 251.378 522.272 251.378 518.582 253.974 L 483.022 278.516 L 447.462 253.974 C 443.771 251.378 438.65 251.378 434.96 253.974 L 399.4 278.516 L 363.84 253.974 C 360.15 251.378 355.029 251.378 351.339 253.974 L 315.779 278.516 L 280.219 253.974 C 278.419 252.723 276.224 252.047 273.968 252.05 Z  M 273.968 273.704 L 309.528 298.246 C 313.207 300.845 318.35 300.845 322.029 298.246 L 357.589 273.704 L 393.149 298.246 C 396.829 300.845 401.971 300.845 405.651 298.246 L 441.211 273.704 L 476.771 298.246 C 480.45 300.845 485.593 300.845 489.272 298.246 L 524.832 273.704 L 560.392 298.246 C 564.072 300.845 569.214 300.845 572.894 298.246 L 608.454 273.704 L 644.014 298.246 C 647.693 300.845 652.836 300.845 656.515 298.246 L 692.075 273.704 L 727.635 298.246 C 731.314 300.845 736.457 300.845 740.136 298.246 L 765.244 280.922 L 765.244 579.276 L 671.17 579.276 C 653.902 579.276 639.812 592.249 639.812 608.149 L 639.812 694.767 L 211.252 694.767 C 205.503 694.767 200.799 690.436 200.799 685.143 L 200.799 280.922 L 225.865 298.246 C 229.586 300.845 234.729 300.845 238.45 298.246 L 273.968 273.704 Z  M 253.063 329.044 C 247.261 329.044 242.61 333.327 242.61 338.668 L 242.61 377.165 C 242.61 382.507 247.261 386.79 253.063 386.79 L 712.98 386.79 C 718.782 386.79 723.433 382.507 723.433 377.165 L 723.433 338.668 C 723.433 333.327 718.782 329.044 712.98 329.044 L 253.063 329.044 Z  M 263.515 348.292 L 702.528 348.292 L 702.528 367.541 L 263.515 367.541 L 263.515 348.292 Z  M 253.063 425.287 C 247.261 425.287 242.61 429.57 242.61 434.911 L 242.61 588.9 C 242.61 594.241 247.261 598.524 253.063 598.524 L 462.116 598.524 C 467.917 598.524 472.569 594.241 472.569 588.9 L 472.569 434.911 C 472.569 429.57 467.917 425.287 462.116 425.287 L 253.063 425.287 Z  M 524.832 425.287 C 519.031 425.287 514.38 429.57 514.38 434.911 C 514.38 440.253 519.031 444.535 524.832 444.535 L 671.17 444.535 C 676.971 444.535 681.622 440.253 681.622 434.911 C 681.622 429.57 676.971 425.287 671.17 425.287 L 524.832 425.287 Z  M 263.515 444.535 L 451.663 444.535 L 451.663 579.276 L 263.515 579.276 L 263.515 444.535 Z  M 524.832 463.784 C 519.031 463.784 514.38 468.067 514.38 473.408 C 514.38 478.75 519.031 483.033 524.832 483.033 L 712.98 483.033 C 718.782 483.033 723.433 478.75 723.433 473.408 C 723.433 468.067 718.782 463.784 712.98 463.784 L 524.832 463.784 Z  M 524.832 502.281 C 519.031 502.281 514.38 506.564 514.38 511.906 C 514.38 517.247 519.031 521.53 524.832 521.53 L 629.359 521.53 C 635.16 521.53 639.812 517.247 639.812 511.906 C 639.812 506.564 635.16 502.281 629.359 502.281 L 524.832 502.281 Z  M 671.17 502.281 C 665.368 502.281 660.717 506.564 660.717 511.906 C 660.717 517.247 665.368 521.53 671.17 521.53 L 692.075 521.53 C 697.876 521.53 702.528 517.247 702.528 511.906 C 702.528 506.564 697.876 502.281 692.075 502.281 L 671.17 502.281 Z  M 524.832 540.778 C 519.031 540.778 514.38 545.061 514.38 550.403 C 514.38 555.744 519.031 560.027 524.832 560.027 L 712.98 560.027 C 718.782 560.027 723.433 555.744 723.433 550.403 C 723.433 545.061 718.782 540.778 712.98 540.778 L 524.832 540.778 Z  M 524.832 579.276 C 519.031 579.276 514.38 583.558 514.38 588.9 C 514.38 594.241 519.031 598.524 524.832 598.524 L 608.454 598.524 C 614.255 598.524 618.906 594.241 618.906 588.9 C 618.906 583.558 614.255 579.276 608.454 579.276 L 524.832 579.276 Z  M 671.17 598.524 L 760.017 598.524 C 758.868 600.103 757.571 601.604 756.056 603 L 665.577 686.307 C 664.062 687.703 662.442 688.906 660.717 689.955 L 660.717 608.149 C 660.717 602.855 665.421 598.524 671.17 598.524 Z  M 253.063 617.773 C 247.261 617.773 242.61 622.056 242.61 627.397 L 242.61 646.646 C 242.61 651.987 247.261 656.27 253.063 656.27 C 258.864 656.27 263.515 651.987 263.515 646.646 L 263.515 627.397 C 263.515 622.056 258.864 617.773 253.063 617.773 Z  M 305.326 617.773 C 299.525 617.773 294.873 622.056 294.873 627.397 L 294.873 646.646 C 294.873 651.987 299.525 656.27 305.326 656.27 C 311.127 656.27 315.779 651.987 315.779 646.646 L 315.779 627.397 C 315.779 622.056 311.127 617.773 305.326 617.773 Z  M 357.589 617.773 C 351.788 617.773 347.137 622.056 347.137 627.397 L 347.137 646.646 C 347.137 651.987 351.788 656.27 357.589 656.27 C 363.391 656.27 368.042 651.987 368.042 646.646 L 368.042 627.397 C 368.042 622.056 363.391 617.773 357.589 617.773 Z  M 409.853 617.773 C 404.052 617.773 399.4 622.056 399.4 627.397 L 399.4 646.646 C 399.4 651.987 404.052 656.27 409.853 656.27 C 415.654 656.27 420.305 651.987 420.305 646.646 L 420.305 627.397 C 420.305 622.056 415.654 617.773 409.853 617.773 Z  M 462.116 617.773 C 456.315 617.773 451.663 622.056 451.663 627.397 L 451.663 646.646 C 451.663 651.987 456.315 656.27 462.116 656.27 C 467.917 656.27 472.569 651.987 472.569 646.646 L 472.569 627.397 C 472.569 622.056 467.917 617.773 462.116 617.773 Z " fill="rgb(22,232,202)"/><text transform="matrix(1,0,0,1,314.089,560.911)" style="font-family:'Prociono';font-weight:400;font-size:125px;font-style:normal;fill:#16e8ca;stroke:none;">C</text></g></svg>