<?xml version="1.0" encoding="UTF-8" standalone="no"?><!-- Generator: Gravit.io --><svg xmlns="http://www.w3.org/2000/svg" xmlns:xlink="http://www.w3.org/1999/xlink" style="isolation:isolate" viewBox="0 0 966.043 966.043" width="966.043pt" height="966.043pt"><defs><clipPath id="_clipPath_YzAtUoZiXtH4KsxMPn18kyZC6jzqvE7w"><rect x="0" y="0" width="966.043" height="966.043"/></clipPath></defs><g clip-path="url(#_clipPath_YzAtUoZiXtH4KsxMPn18kyZC6jzqvE7w)"><circle vector-effect="non-scaling-stroke" cx="483.0216150619571" cy="483.0216150619571" r="483.0216150619571" fill="rgb(153,63,255)"/><path d=" M 421.495 189.241 C 418.921 189.317 416.353 189.546 413.805 189.926 C 389.512 193.521 368.344 211.046 359.812 234.467 C 358.008 239.414 356.776 244.551 356.138 249.778 C 351.355 248.6 346.449 247.995 341.523 247.975 C 341.327 247.975 341.18 247.936 340.985 247.936 C 340.867 247.936 340.789 248.015 340.681 248.015 C 336.506 248.009 332.34 248.402 328.24 249.19 C 303.604 254.058 283.7 273.875 278.655 298.521 C 276.656 308.127 276.891 318.064 279.341 327.565 C 249.681 333.624 228.368 359.701 228.335 389.973 C 228.335 400.876 231.126 411.524 236.367 420.888 C 233.272 422.26 230.294 423.837 227.375 425.59 L 225.425 426.746 C 222.78 428.47 220.185 430.272 217.775 432.251 C 216.697 433.133 215.786 434.054 214.787 434.974 C 213.906 435.778 212.955 436.542 212.113 437.423 C 211.956 437.531 211.917 437.727 211.799 437.884 C 197.275 452.478 189.131 472.237 189.152 492.827 C 189.152 514.868 198.644 535.948 214.826 550.72 L 214.709 551.112 C 214.366 551.905 214.101 552.708 213.798 553.561 C 212.955 555.774 212.23 558.027 211.613 560.32 C 211.457 560.858 211.192 561.397 211.035 561.975 C 210.996 562.171 211.075 562.357 211.035 562.543 C 209.544 568.579 208.775 574.771 208.743 580.988 C 208.68 613.324 228.553 642.354 258.721 653.995 C 258.681 654.074 258.721 654.152 258.721 654.26 C 258.055 657.549 257.72 660.896 257.722 664.251 C 257.752 691.446 278.027 714.362 305.015 717.706 C 320.493 753.578 355.792 776.835 394.861 776.901 C 420.436 776.947 445.005 766.942 463.274 749.043 C 474.287 738.398 491.756 738.398 502.77 749.043 C 521.041 766.936 545.608 776.94 571.182 776.901 C 610.326 776.901 645.678 753.372 661.028 717.706 C 675.812 715.87 689.178 707.998 697.954 695.96 C 706.73 683.922 710.135 668.789 707.362 654.152 C 707.322 654.074 707.322 654.035 707.322 653.995 C 737.49 642.354 757.363 613.324 757.3 580.988 C 757.283 576.845 756.926 572.711 756.232 568.626 C 755.96 566.866 755.613 565.117 755.194 563.386 C 754.9 562.038 754.57 560.699 754.204 559.369 C 753.783 557.92 753.284 556.499 752.784 555.079 C 752.294 553.668 751.863 552.248 751.295 550.837 C 751.256 550.798 751.256 550.798 751.217 550.72 C 767.521 535.882 776.838 514.873 776.891 492.827 C 776.946 467.034 764.201 442.894 742.871 428.392 C 742.675 428.235 742.577 428 742.342 427.853 C 741.999 427.588 741.578 427.393 741.186 427.167 C 739.932 426.364 738.59 425.639 737.287 424.865 C 735.458 423.838 733.596 422.871 731.704 421.966 C 730.969 421.652 730.362 421.231 729.637 420.927 C 734.917 411.524 737.709 400.876 737.709 389.973 C 737.675 359.701 716.362 333.624 686.703 327.565 C 689.152 318.064 689.387 308.127 687.388 298.521 C 682.344 273.875 662.439 254.098 637.803 249.2 C 633.703 248.409 629.537 248.012 625.362 248.015 C 625.254 248.015 625.166 247.936 625.059 247.936 C 624.863 247.936 624.716 247.975 624.52 247.975 C 621.794 247.995 619.071 248.188 616.37 248.553 C 615.645 248.661 614.92 248.818 614.195 248.935 C 612.736 249.2 611.325 249.425 609.905 249.768 C 609.244 244.549 608.012 239.418 606.231 234.467 C 597.699 211.056 576.541 193.521 552.238 189.926 C 531.78 186.809 511.006 193.077 495.687 206.99 C 488.468 213.421 477.575 213.421 470.356 206.99 C 457.031 194.888 439.481 188.513 421.495 189.241 Z  M 422.22 208.793 C 435.111 208.303 447.591 212.809 457.151 221.459 C 471.649 234.663 494.345 234.663 508.853 221.459 C 519.844 211.522 534.721 207.055 549.367 209.292 C 566.627 211.888 581.703 224.368 587.825 241.167 C 589.814 246.712 590.774 252.217 590.735 257.957 C 580.865 264.247 572.932 273.147 567.813 283.671 C 565.444 288.521 567.446 294.374 572.289 296.758 C 574.621 297.919 577.321 298.099 579.786 297.258 C 582.252 296.417 584.279 294.625 585.416 292.281 C 589.595 283.695 596.478 276.719 605.007 272.425 C 607.074 271.348 609.219 270.437 611.394 269.751 C 611.55 269.712 611.668 269.634 611.815 269.594 C 623.663 265.848 636.543 267.28 647.278 273.54 C 658.013 279.799 665.604 290.302 668.179 302.459 C 670.285 312.368 668.894 322.7 664.241 331.699 C 662.674 334.755 663.242 338.428 665.084 341.338 C 666.915 344.276 670.589 345.971 674.037 345.893 C 698.33 345.893 718.117 365.68 718.117 389.973 C 718.117 399.191 715.051 408.036 709.693 415.491 C 696.55 413.517 683.121 414.916 670.667 419.556 C 665.85 421.647 663.532 427.16 665.407 432.065 C 667.283 436.97 672.687 439.53 677.671 437.874 C 688.656 433.751 700.623 433.007 712.034 435.738 C 714.943 436.385 717.696 437.306 720.37 438.383 C 721.183 438.677 721.938 439.069 722.711 439.412 C 724.817 440.333 726.806 441.371 728.716 442.507 C 729.363 442.928 730.088 443.271 730.744 443.692 C 747.36 454.503 757.359 473.004 757.3 492.827 C 757.3 508.168 751.403 522.41 741 533.235 C 735.319 525.834 728.359 519.511 720.449 514.564 C 718.259 513.178 715.607 512.721 713.079 513.295 C 710.552 513.868 708.357 515.425 706.98 517.62 C 705.596 519.824 705.145 522.487 705.728 525.024 C 706.31 527.56 707.878 529.76 710.085 531.138 C 718.574 536.412 725.569 543.774 730.401 552.522 C 730.479 552.601 730.44 552.669 730.519 552.748 C 735.237 561.413 737.709 571.122 737.709 580.988 C 737.709 605.595 722.476 627.028 700.015 635.629 C 690.707 620.858 674.825 611.506 657.394 610.532 C 658.54 605.742 659.343 600.805 659.343 595.682 C 659.338 585.229 656.762 574.938 651.84 565.717 C 650.624 563.423 648.543 561.709 646.059 560.955 C 643.574 560.201 640.892 560.469 638.606 561.701 C 636.309 562.917 634.593 564.999 633.839 567.486 C 633.085 569.973 633.355 572.658 634.59 574.944 C 638.012 581.319 639.787 588.447 639.752 595.682 C 639.797 616.04 625.866 633.768 606.075 638.538 C 603.555 639.141 601.38 640.724 600.03 642.936 C 598.681 645.147 598.269 647.805 598.885 650.322 C 599.482 652.847 601.061 655.03 603.273 656.387 C 605.485 657.744 608.147 658.163 610.669 657.551 C 626.304 653.76 639.9 644.137 648.676 630.652 C 650.576 630.309 652.496 629.967 654.445 629.967 C 668.747 629.967 681.041 638.802 686.125 651.321 C 687.006 653.378 687.623 655.455 688.084 657.59 C 690.048 667.594 687.465 677.952 681.035 685.862 C 674.604 693.772 664.991 698.416 654.798 698.536 C 649.998 698.34 646.452 700.946 645.002 705.041 C 633.925 736.321 604.366 757.25 571.182 757.31 C 550.732 757.364 531.079 749.378 516.464 735.074 C 507.515 726.367 495.507 721.521 483.022 721.576 C 470.536 721.521 458.528 726.367 449.579 735.074 C 434.964 749.378 415.311 757.364 394.861 757.31 C 361.68 757.246 332.127 736.318 321.05 705.041 C 319.591 700.946 316.113 698.233 311.255 698.536 C 301.051 698.421 291.428 693.773 284.994 685.853 C 278.56 677.933 275.982 667.562 277.959 657.551 C 278.426 655.408 279.081 653.31 279.918 651.282 L 279.918 651.243 C 285.187 638.383 297.7 629.978 311.598 629.967 C 313.557 629.967 315.467 630.358 317.377 630.652 C 326.117 644.099 339.646 653.716 355.218 657.551 C 357.744 658.161 360.41 657.743 362.627 656.387 C 364.845 655.031 366.433 652.849 367.041 650.322 C 367.661 647.8 367.25 645.136 365.901 642.917 C 364.552 640.699 362.375 639.109 359.851 638.499 C 340.113 633.699 326.237 615.995 326.291 595.682 C 326.291 588.796 327.819 582.213 330.885 576.091 C 333.295 571.23 331.308 565.336 326.448 562.925 C 324.119 561.772 321.427 561.592 318.965 562.425 C 316.504 563.257 314.473 565.033 313.322 567.363 C 308.952 576.163 306.686 585.857 306.7 595.682 C 306.7 600.805 307.503 605.742 308.659 610.532 C 291.232 611.495 275.354 620.85 266.067 635.629 C 238.22 625.088 222.756 595.29 230.166 566.452 C 230.772 564.029 231.541 561.649 232.468 559.33 C 232.929 558.223 233.497 557.146 233.996 556.039 C 236.976 549.652 241.069 543.847 246.084 538.896 C 247.942 537.088 249.002 534.615 249.032 532.023 C 249.061 529.431 248.057 526.934 246.241 525.085 C 244.435 523.212 241.957 522.139 239.356 522.102 C 236.756 522.065 234.248 523.068 232.39 524.889 C 229.731 527.49 227.262 530.279 225.004 533.235 C 214.557 522.379 208.728 507.894 208.743 492.827 C 208.713 475.749 216.166 459.514 229.138 448.404 C 231.165 446.641 233.272 444.995 235.525 443.546 C 235.838 443.31 236.181 443.154 236.445 442.968 C 241.945 439.55 247.968 437.055 254.273 435.582 L 254.352 435.582 C 264.488 433.201 275.077 433.587 285.012 436.698 C 288.396 437.874 292.151 437.109 294.806 434.703 C 297.46 432.298 298.589 428.635 297.751 425.153 C 296.912 421.67 294.24 418.923 290.782 417.989 C 283.249 415.648 275.405 414.459 267.517 414.462 C 263.697 414.462 259.975 414.854 256.272 415.383 C 250.902 407.994 247.983 399.107 247.926 389.973 C 247.926 365.68 267.713 345.893 291.742 345.893 L 292.77 345.932 C 296.229 346.02 299.479 344.28 301.324 341.352 C 303.168 338.424 303.335 334.742 301.763 331.66 C 297.147 322.667 295.757 312.363 297.825 302.469 C 302.604 279.853 324.054 264.781 346.95 267.949 C 347.185 267.988 347.411 268.066 347.606 268.105 C 349.634 268.399 351.623 268.869 353.582 269.438 C 355.847 270.15 358.06 271.021 360.204 272.043 C 368.04 275.864 374.77 281.878 379.246 289.724 C 380.536 291.979 382.672 293.625 385.18 294.3 C 387.687 294.975 390.361 294.622 392.608 293.319 C 397.31 290.635 398.916 284.631 396.232 279.929 C 391.088 271.097 383.899 263.629 375.269 258.153 C 375.222 252.361 376.218 246.607 378.208 241.167 C 384.301 224.368 399.416 211.888 416.636 209.292 C 418.488 209.031 420.351 208.864 422.22 208.793 Z  M 473.226 247.936 C 467.816 247.936 463.43 252.322 463.43 257.732 C 463.43 263.142 467.816 267.527 473.226 267.527 L 492.817 267.527 C 498.227 267.527 502.613 263.142 502.613 257.732 C 502.613 252.322 498.227 247.936 492.817 247.936 L 473.226 247.936 Z  M 473.226 296.914 C 467.816 296.914 463.43 301.3 463.43 306.71 C 463.43 312.12 467.816 316.506 473.226 316.506 L 492.817 316.506 C 498.227 316.506 502.613 312.12 502.613 306.71 C 502.613 301.3 498.227 296.914 492.817 296.914 L 473.226 296.914 Z  M 553.883 325.88 C 552.591 326.14 551.361 326.646 550.259 327.369 C 535.383 337.42 525.436 353.279 522.863 371.047 C 520.29 388.814 525.328 406.843 536.741 420.702 C 538.7 423.033 541.492 424.258 544.323 424.258 C 548.122 424.271 551.585 422.081 553.202 418.643 C 554.82 415.205 554.298 411.141 551.865 408.222 C 543.959 398.633 540.469 386.151 542.254 373.851 C 544.039 361.551 550.934 350.577 561.24 343.63 C 565.707 340.613 566.902 334.491 563.875 330.014 C 561.66 326.775 557.739 325.153 553.883 325.88 Z  M 410.671 327.144 C 406.754 327.736 403.58 330.631 402.632 334.478 C 401.684 338.324 403.148 342.363 406.341 344.707 C 417.574 353.041 424.212 366.19 424.248 380.177 C 424.254 390.411 420.697 400.327 414.187 408.222 C 411.755 411.141 411.233 415.205 412.851 418.643 C 414.468 422.081 417.931 424.271 421.73 424.258 C 424.551 424.258 427.343 423.033 429.302 420.702 C 438.696 409.286 443.834 394.962 443.839 380.177 C 443.798 359.974 434.209 340.978 417.978 328.946 C 415.877 327.394 413.243 326.745 410.661 327.144 L 410.671 327.144 Z  M 473.226 345.893 C 467.816 345.893 463.43 350.278 463.43 355.688 C 463.43 361.098 467.816 365.484 473.226 365.484 L 492.817 365.484 C 498.227 365.484 502.613 361.098 502.613 355.688 C 502.613 350.278 498.227 345.893 492.817 345.893 L 473.226 345.893 Z  M 473.226 394.871 C 467.816 394.871 463.43 399.257 463.43 404.667 C 463.43 410.077 467.816 414.462 473.226 414.462 L 492.817 414.462 C 498.227 414.462 502.613 410.077 502.613 404.667 C 502.613 399.257 498.227 394.871 492.817 394.871 L 473.226 394.871 Z  M 340.299 395.596 C 334.889 395.596 330.503 399.981 330.503 405.391 C 330.408 429.75 344.306 451.999 366.238 462.598 C 367.609 463.284 369.079 463.597 370.528 463.597 C 375.082 463.588 379.03 460.442 380.054 456.004 C 381.078 451.567 378.908 447.009 374.819 445.005 C 359.637 437.664 350.02 422.255 350.095 405.391 C 350.095 399.981 345.709 395.596 340.299 395.596 Z  M 625.019 397.966 C 619.632 397.966 615.224 402.374 615.224 407.762 C 615.224 423.533 606.731 438.187 593.066 446.034 C 589.24 448.259 587.374 452.768 588.509 457.046 C 589.643 461.324 593.499 464.315 597.925 464.352 C 599.57 464.352 601.255 463.901 602.822 463.019 C 622.593 451.644 634.79 430.582 634.815 407.772 C 634.815 402.374 630.407 397.976 625.019 397.976 L 625.019 397.966 Z  M 473.226 443.849 C 467.816 443.849 463.43 448.235 463.43 453.645 C 463.43 459.055 467.816 463.441 473.226 463.441 L 492.817 463.441 C 498.227 463.441 502.613 459.055 502.613 453.645 C 502.613 448.235 498.227 443.849 492.817 443.849 L 473.226 443.849 Z  M 473.226 492.827 C 467.816 492.827 463.43 497.213 463.43 502.623 C 463.43 508.033 467.816 512.419 473.226 512.419 L 492.817 512.419 C 498.227 512.419 502.613 508.033 502.613 502.623 C 502.613 497.213 498.227 492.827 492.817 492.827 L 473.226 492.827 Z  M 354.718 512.115 C 352.221 512.16 349.731 512.376 347.264 512.762 C 341.908 513.565 338.217 518.558 339.021 523.914 C 339.824 529.27 344.817 532.96 350.173 532.157 C 364.028 530.056 378.057 534.658 387.974 544.558 C 391.383 547.967 394.175 551.866 396.281 556.196 C 397.995 559.634 401.473 561.622 405.078 561.622 C 408.467 561.621 411.615 559.866 413.4 556.985 C 415.185 554.103 415.353 550.503 413.845 547.468 C 410.778 541.256 406.703 535.596 401.786 530.717 C 389.321 518.309 372.298 511.578 354.718 512.105 L 354.718 512.115 Z  M 614.538 512.115 C 589.626 511.379 566.555 525.18 555.421 547.477 C 553.062 552.327 555.04 558.173 559.859 560.594 C 561.203 561.253 562.681 561.594 564.179 561.593 C 567.813 561.593 571.3 559.634 573.024 556.196 C 575.12 551.866 577.922 547.967 581.321 544.558 C 591.191 534.602 605.243 529.992 619.093 532.167 C 624.481 532.853 629.418 529.258 630.26 523.899 C 630.644 521.327 629.99 518.707 628.441 516.618 C 626.892 514.529 624.575 513.141 622.002 512.762 C 619.532 512.374 617.038 512.158 614.538 512.115 L 614.538 512.115 Z  M 473.226 541.806 C 467.816 541.806 463.43 546.191 463.43 551.601 C 463.43 557.011 467.816 561.397 473.226 561.397 L 492.817 561.397 C 498.227 561.397 502.613 557.011 502.613 551.601 C 502.613 546.191 498.227 541.806 492.817 541.806 L 473.226 541.806 Z  M 473.226 590.784 C 467.816 590.784 463.43 595.17 463.43 600.58 C 463.43 605.99 467.816 610.375 473.226 610.375 L 492.817 610.375 C 498.227 610.375 502.613 605.99 502.613 600.58 C 502.613 595.17 498.227 590.784 492.817 590.784 L 473.226 590.784 Z  M 553.883 619.75 C 552.591 620.01 551.361 620.515 550.259 621.239 C 523.59 639.262 514.543 674.34 529.169 703.013 C 530.836 706.291 534.209 708.35 537.887 708.332 C 541.295 708.339 544.459 706.567 546.234 703.659 C 548.01 700.751 548.139 697.126 546.576 694.099 C 543.408 687.891 541.769 681.016 541.795 674.047 C 541.798 659.395 549.082 645.702 561.23 637.509 C 565.707 634.473 566.892 628.36 563.875 623.884 C 561.622 620.553 557.606 619.025 553.883 619.75 Z  M 410.671 621.013 C 406.754 621.605 403.58 624.501 402.632 628.347 C 401.684 632.194 403.148 636.232 406.341 638.577 C 417.574 646.911 424.212 660.06 424.248 674.047 C 424.248 681.129 422.602 687.859 419.428 694.099 C 417.888 697.133 418.027 700.749 419.797 703.655 C 421.566 706.562 424.714 708.346 428.117 708.371 C 431.795 708.389 435.168 706.331 436.835 703.052 C 441.441 694.078 443.842 684.135 443.839 674.047 C 443.798 653.843 434.209 634.848 417.978 622.816 C 415.877 621.263 413.243 620.614 410.661 621.013 L 410.671 621.013 Z  M 473.226 639.762 C 467.816 639.762 463.43 644.148 463.43 649.558 C 463.43 654.968 467.816 659.354 473.226 659.354 L 492.817 659.354 C 498.227 659.354 502.613 654.968 502.613 649.558 C 502.613 644.148 498.227 639.762 492.817 639.762 L 473.226 639.762 Z  M 473.226 688.741 C 467.816 688.741 463.43 693.126 463.43 698.536 C 463.43 703.946 467.816 708.332 473.226 708.332 L 492.817 708.332 C 498.227 708.332 502.613 703.946 502.613 698.536 C 502.613 693.126 498.227 688.741 492.817 688.741 L 473.226 688.741 Z " fill="rgb(22,232,202)"/></g></svg>