<?xml version="1.0" encoding="UTF-8" standalone="no"?><!-- Generator: Gravit.io --><svg xmlns="http://www.w3.org/2000/svg" xmlns:xlink="http://www.w3.org/1999/xlink" style="isolation:isolate" viewBox="0 0 966.043 966.043" width="966.043pt" height="966.043pt"><defs><clipPath id="_clipPath_6SILYK6DGm4uV2m48QxlflYgKKxEwYaK"><rect x="0" y="0" width="966.043" height="966.043"/></clipPath></defs><g clip-path="url(#_clipPath_6SILYK6DGm4uV2m48QxlflYgKKxEwYaK)"><circle vector-effect="non-scaling-stroke" cx="483.0216150619571" cy="483.0216150619571" r="483.0216150619571" fill="rgb(153,63,255)"/><path d=" M 257.687 283.522 C 242.797 283.522 230.647 294.727 230.647 308.459 L 230.647 657.584 C 230.647 671.316 242.797 682.522 257.687 682.522 L 708.356 682.522 C 723.247 682.522 735.397 671.316 735.397 657.584 L 735.397 308.459 C 735.397 294.727 723.247 283.522 708.356 283.522 L 257.687 283.522 Z  M 257.687 300.147 L 708.356 300.147 C 713.314 300.147 717.37 303.887 717.37 308.459 L 717.37 657.584 C 717.37 662.156 713.314 665.897 708.356 665.897 L 257.687 665.897 C 252.729 665.897 248.673 662.156 248.673 657.584 L 248.673 383.272 L 618.223 383.272 C 623.2 383.272 627.236 379.55 627.236 374.959 C 627.236 370.368 623.2 366.647 618.223 366.647 L 248.673 366.647 L 248.673 308.459 C 248.673 303.887 252.729 300.147 257.687 300.147 Z  M 284.727 316.772 C 279.749 316.772 275.714 320.493 275.714 325.084 L 275.714 341.709 C 275.714 346.3 279.749 350.022 284.727 350.022 C 289.705 350.022 293.74 346.3 293.74 341.709 L 293.74 325.084 C 293.74 320.493 289.705 316.772 284.727 316.772 Z  M 329.794 316.772 C 324.816 316.772 320.781 320.493 320.781 325.084 L 320.781 341.709 C 320.781 346.3 324.816 350.022 329.794 350.022 C 334.772 350.022 338.807 346.3 338.807 341.709 L 338.807 325.084 C 338.807 320.493 334.772 316.772 329.794 316.772 Z  M 374.861 316.772 C 369.883 316.772 365.848 320.493 365.848 325.084 L 365.848 341.709 C 365.848 346.3 369.883 350.022 374.861 350.022 C 379.839 350.022 383.874 346.3 383.874 341.709 L 383.874 325.084 C 383.874 320.493 379.839 316.772 374.861 316.772 Z  M 419.928 316.772 C 414.95 316.772 410.914 320.493 410.914 325.084 L 410.914 341.709 C 410.914 346.3 414.95 350.022 419.928 350.022 C 424.906 350.022 428.941 346.3 428.941 341.709 L 428.941 325.084 C 428.941 320.493 424.906 316.772 419.928 316.772 Z  M 464.995 316.772 C 460.017 316.772 455.981 320.493 455.981 325.084 L 455.981 341.709 C 455.981 346.3 460.017 350.022 464.995 350.022 C 469.973 350.022 474.008 346.3 474.008 341.709 L 474.008 325.084 C 474.008 320.493 469.973 316.772 464.995 316.772 Z  M 510.062 316.772 C 505.084 316.772 501.048 320.493 501.048 325.084 L 501.048 341.709 C 501.048 346.3 505.084 350.022 510.062 350.022 C 515.04 350.022 519.075 346.3 519.075 341.709 L 519.075 325.084 C 519.075 320.493 515.04 316.772 510.062 316.772 Z  M 555.129 316.772 C 550.151 316.772 546.115 320.493 546.115 325.084 L 546.115 341.709 C 546.115 346.3 550.151 350.022 555.129 350.022 C 560.107 350.022 564.142 346.3 564.142 341.709 L 564.142 325.084 C 564.142 320.493 560.107 316.772 555.129 316.772 Z  M 600.196 316.772 C 595.218 316.772 591.182 320.493 591.182 325.084 L 591.182 341.709 C 591.182 346.3 595.218 350.022 600.196 350.022 C 605.174 350.022 609.209 346.3 609.209 341.709 L 609.209 325.084 C 609.209 320.493 605.174 316.772 600.196 316.772 Z  M 645.263 316.772 C 640.285 316.772 636.249 320.493 636.249 325.084 L 636.249 341.709 C 636.249 346.3 640.285 350.022 645.263 350.022 C 650.241 350.022 654.276 346.3 654.276 341.709 L 654.276 325.084 C 654.276 320.493 650.241 316.772 645.263 316.772 Z  M 690.33 316.772 C 685.352 316.772 681.316 320.493 681.316 325.084 L 681.316 341.709 C 681.316 346.3 685.352 350.022 690.33 350.022 C 695.308 350.022 699.343 346.3 699.343 341.709 L 699.343 325.084 C 699.343 320.493 695.308 316.772 690.33 316.772 Z  M 654.276 366.647 C 649.298 366.647 645.263 370.368 645.263 374.959 C 645.263 379.55 649.298 383.272 654.276 383.272 L 690.33 383.272 C 695.308 383.272 699.343 379.55 699.343 374.959 C 699.343 370.368 695.308 366.647 690.33 366.647 L 654.276 366.647 Z  M 508.656 416.621 C 505.078 417.131 502.186 419.579 501.328 422.822 L 447.247 622.322 C 446.561 624.805 447.16 627.44 448.869 629.46 C 450.577 631.48 453.204 632.657 455.981 632.647 C 460.037 632.647 463.688 630.153 464.715 626.379 L 518.796 426.879 C 519.387 424.738 519.028 422.468 517.798 420.572 C 516.568 418.676 514.568 417.311 512.243 416.779 C 511.075 416.483 509.85 416.426 508.656 416.613 L 508.656 416.621 Z  M 401.901 466.397 C 399.511 466.397 397.219 467.273 395.529 468.832 L 341.448 518.707 C 337.93 521.953 337.93 527.215 341.448 530.461 L 395.529 580.336 C 397.286 581.957 399.585 582.772 401.901 582.772 C 405.546 582.771 408.832 580.746 410.227 577.64 C 411.621 574.534 410.851 570.96 408.274 568.582 L 360.566 524.584 L 408.274 480.586 C 410.851 478.209 411.621 474.634 410.227 471.528 C 408.832 468.423 405.546 466.397 401.901 466.397 Z  M 564.142 466.397 C 560.497 466.397 557.211 468.423 555.817 471.528 C 554.422 474.634 555.193 478.209 557.77 480.586 L 605.478 524.584 L 557.77 568.582 C 555.427 570.669 554.487 573.76 555.312 576.666 C 556.137 579.572 558.598 581.842 561.749 582.603 C 564.9 583.364 568.252 582.497 570.515 580.336 L 624.595 530.461 C 628.114 527.215 628.114 521.953 624.595 518.707 L 570.515 468.832 C 568.825 467.273 566.532 466.397 564.142 466.397 Z " fill="rgb(22,232,202)"/></g></svg>